<svg width="178" height="38" viewBox="0 0 178 38" fill="none" xmlns="http://www.w3.org/2000/svg">
<rect width="178" height="38" rx="19" fill="#DAD4C8"/>
<rect x="0.5" y="0.5" width="177" height="37" rx="18.5" stroke="black" stroke-opacity="0.56"/>
<path d="M33.5787 21.894C33.5787 22.0713 33.616 22.2253 33.6907 22.356C33.7747 22.4773 33.8634 22.5847 33.9567 22.678C34.0687 22.7807 34.1947 22.8647 34.3347 22.93V23H32.2627V22.93C32.2814 22.93 32.328 22.9113 32.4027 22.874C32.4867 22.8273 32.5754 22.762 32.6687 22.678C32.762 22.594 32.8414 22.4867 32.9067 22.356C32.9814 22.2253 33.0187 22.0713 33.0187 21.894V14.306C33.0187 14.1287 32.9814 13.9747 32.9067 13.844C32.8414 13.7133 32.762 13.606 32.6687 13.522C32.5754 13.438 32.4867 13.3773 32.4027 13.34C32.328 13.2933 32.2814 13.27 32.2627 13.27V13.2H40.5227V13.27C40.504 13.27 40.4527 13.2933 40.3687 13.34C40.294 13.3773 40.21 13.438 40.1167 13.522C40.0234 13.606 39.9394 13.7133 39.8647 13.844C39.7994 13.9747 39.7667 14.1287 39.7667 14.306V21.894C39.7667 22.0713 39.7994 22.2253 39.8647 22.356C39.9394 22.4867 40.0234 22.594 40.1167 22.678C40.21 22.762 40.294 22.8273 40.3687 22.874C40.4527 22.9113 40.504 22.93 40.5227 22.93V23H38.4507V22.93C38.5907 22.8647 38.7167 22.7807 38.8287 22.678C38.9314 22.5847 39.02 22.4773 39.0947 22.356C39.1694 22.2253 39.2067 22.0713 39.2067 21.894V13.41H33.5787V21.894ZM43.6812 15.86C44.1479 15.86 44.5679 15.9487 44.9412 16.126C45.3146 16.3033 45.6319 16.5553 45.8932 16.882C46.1639 17.1993 46.3692 17.582 46.5092 18.03C46.6492 18.478 46.7192 18.968 46.7192 19.5C46.7192 20.032 46.6492 20.522 46.5092 20.97C46.3692 21.4087 46.1639 21.7913 45.8932 22.118C45.6319 22.4353 45.3146 22.6873 44.9412 22.874C44.5679 23.0513 44.1479 23.14 43.6812 23.14C43.2146 23.14 42.7946 23.0513 42.4212 22.874C42.0479 22.6873 41.7306 22.4353 41.4692 22.118C41.2079 21.7913 41.0072 21.4087 40.8672 20.97C40.7272 20.522 40.6572 20.032 40.6572 19.5C40.6572 18.968 40.7272 18.478 40.8672 18.03C41.0072 17.582 41.2079 17.1993 41.4692 16.882C41.7306 16.5553 42.0479 16.3033 42.4212 16.126C42.7946 15.9487 43.2146 15.86 43.6812 15.86ZM43.6812 22.93C44.1012 22.93 44.4652 22.8367 44.7732 22.65C45.0812 22.4633 45.3379 22.216 45.5432 21.908C45.7486 21.5907 45.9026 21.2267 46.0052 20.816C46.1079 20.396 46.1592 19.9573 46.1592 19.5C46.1592 19.0427 46.1079 18.6087 46.0052 18.198C45.9026 17.778 45.7486 17.414 45.5432 17.106C45.3379 16.7887 45.0812 16.5367 44.7732 16.35C44.4652 16.1633 44.1012 16.07 43.6812 16.07C43.2612 16.07 42.8972 16.1633 42.5892 16.35C42.2812 16.5367 42.0246 16.7887 41.8192 17.106C41.6232 17.414 41.4739 17.778 41.3712 18.198C41.2686 18.6087 41.2172 19.0427 41.2172 19.5C41.2172 19.9573 41.2686 20.396 41.3712 20.816C41.4739 21.2267 41.6232 21.5907 41.8192 21.908C42.0246 22.216 42.2812 22.4633 42.5892 22.65C42.8972 22.8367 43.2612 22.93 43.6812 22.93ZM47.8344 19.528C47.8344 19.976 47.8951 20.4053 48.0164 20.816C48.1471 21.2173 48.3244 21.572 48.5484 21.88C48.7724 22.1787 49.0337 22.4167 49.3324 22.594C49.6404 22.7713 49.9717 22.86 50.3264 22.86C50.8584 22.86 51.3017 22.7573 51.6564 22.552C52.0204 22.3467 52.3377 22.0153 52.6084 21.558L52.7904 21.656C52.5477 22.076 52.2304 22.4307 51.8384 22.72C51.4557 23 50.9517 23.14 50.3264 23.14C49.8317 23.14 49.3931 23.0513 49.0104 22.874C48.6371 22.6873 48.3197 22.4353 48.0584 22.118C47.7971 21.7913 47.6011 21.4087 47.4704 20.97C47.3397 20.522 47.2744 20.0413 47.2744 19.528C47.2744 19.0053 47.3537 18.5247 47.5124 18.086C47.6711 17.638 47.8857 17.2553 48.1564 16.938C48.4364 16.6207 48.7584 16.3733 49.1224 16.196C49.4957 16.0187 49.8971 15.93 50.3264 15.93C50.7371 15.93 51.0591 15.9767 51.2924 16.07C51.5351 16.154 51.7404 16.2473 51.9084 16.35C52.0297 16.4247 52.1744 16.56 52.3424 16.756C52.5197 16.9427 52.6271 17.1527 52.6644 17.386C52.6831 17.4793 52.6691 17.5913 52.6224 17.722C52.5851 17.8433 52.4964 17.9133 52.3564 17.932C52.2351 17.9413 52.1324 17.918 52.0484 17.862C51.9737 17.7967 51.9131 17.6847 51.8664 17.526C51.8477 17.4607 51.8291 17.3767 51.8104 17.274C51.8011 17.1713 51.7731 17.064 51.7264 16.952C51.6891 16.84 51.6237 16.7327 51.5304 16.63C51.4464 16.518 51.3251 16.4247 51.1664 16.35C51.0451 16.294 50.9237 16.2473 50.8024 16.21C50.6811 16.1727 50.5224 16.154 50.3264 16.154C49.9251 16.154 49.5657 16.2473 49.2484 16.434C48.9404 16.6113 48.6791 16.8587 48.4644 17.176C48.2591 17.484 48.1004 17.8433 47.9884 18.254C47.8857 18.6553 47.8344 19.08 47.8344 19.528ZM53.5558 22.216C53.5558 22.3373 53.5885 22.4447 53.6538 22.538C53.7192 22.622 53.7938 22.6967 53.8778 22.762C53.9618 22.8273 54.0645 22.8833 54.1858 22.93V23H52.7158V22.93C52.8372 22.8833 52.9445 22.8273 53.0378 22.762C53.1125 22.6967 53.1825 22.622 53.2478 22.538C53.3132 22.4447 53.3458 22.3373 53.3458 22.216V16.784C53.3458 16.6627 53.3132 16.56 53.2478 16.476C53.1918 16.3827 53.1218 16.308 53.0378 16.252C52.9632 16.1867 52.8932 16.14 52.8278 16.112C52.7625 16.084 52.7252 16.07 52.7158 16.07V16H53.9478L56.5658 22.3L59.0158 16H60.0378V16.07C59.9538 16.1167 59.8792 16.1727 59.8138 16.238C59.7485 16.3033 59.6925 16.378 59.6458 16.462C59.5992 16.546 59.5758 16.6533 59.5758 16.784V22.216C59.5758 22.3373 59.5992 22.4447 59.6458 22.538C59.6925 22.622 59.7485 22.6967 59.8138 22.762C59.8792 22.8273 59.9538 22.8833 60.0378 22.93V23H58.5678V22.93C58.6518 22.8833 58.7265 22.8273 58.7918 22.762C58.8478 22.6967 58.8992 22.622 58.9458 22.538C58.9925 22.4447 59.0158 22.3373 59.0158 22.216V16.546L56.4818 23.07H56.2718L53.5558 16.532V22.216ZM63.3414 15.86C63.808 15.86 64.228 15.9487 64.6014 16.126C64.9747 16.3033 65.292 16.5553 65.5534 16.882C65.824 17.1993 66.0294 17.582 66.1694 18.03C66.3094 18.478 66.3794 18.968 66.3794 19.5C66.3794 20.032 66.3094 20.522 66.1694 20.97C66.0294 21.4087 65.824 21.7913 65.5534 22.118C65.292 22.4353 64.9747 22.6873 64.6014 22.874C64.228 23.0513 63.808 23.14 63.3414 23.14C62.8747 23.14 62.4547 23.0513 62.0814 22.874C61.708 22.6873 61.3907 22.4353 61.1294 22.118C60.868 21.7913 60.6674 21.4087 60.5274 20.97C60.3874 20.522 60.3174 20.032 60.3174 19.5C60.3174 18.968 60.3874 18.478 60.5274 18.03C60.6674 17.582 60.868 17.1993 61.1294 16.882C61.3907 16.5553 61.708 16.3033 62.0814 16.126C62.4547 15.9487 62.8747 15.86 63.3414 15.86ZM63.3414 22.93C63.7614 22.93 64.1254 22.8367 64.4334 22.65C64.7414 22.4633 64.998 22.216 65.2034 21.908C65.4087 21.5907 65.5627 21.2267 65.6654 20.816C65.768 20.396 65.8194 19.9573 65.8194 19.5C65.8194 19.0427 65.768 18.6087 65.6654 18.198C65.5627 17.778 65.4087 17.414 65.2034 17.106C64.998 16.7887 64.7414 16.5367 64.4334 16.35C64.1254 16.1633 63.7614 16.07 63.3414 16.07C62.9214 16.07 62.5574 16.1633 62.2494 16.35C61.9414 16.5367 61.6847 16.7887 61.4794 17.106C61.2834 17.414 61.134 17.778 61.0314 18.198C60.9287 18.6087 60.8774 19.0427 60.8774 19.5C60.8774 19.9573 60.9287 20.396 61.0314 20.816C61.134 21.2267 61.2834 21.5907 61.4794 21.908C61.6847 22.216 61.9414 22.4633 62.2494 22.65C62.5574 22.8367 62.9214 22.93 63.3414 22.93ZM69.9375 16.126V22.314H69.3775V16.126H69.9375ZM69.9375 22.314C69.9375 22.4167 69.9608 22.51 70.0075 22.594C70.0635 22.6687 70.1195 22.7293 70.1755 22.776C70.2408 22.8413 70.3201 22.8927 70.4135 22.93V23H68.9015V22.93C68.9948 22.8927 69.0741 22.8413 69.1395 22.776C69.2048 22.7293 69.2608 22.6687 69.3075 22.594C69.3541 22.51 69.3775 22.4167 69.3775 22.314H69.9375ZM67.4455 16H71.8695V16.21H67.4455V16ZM67.4455 16.21C67.2775 16.21 67.1421 16.2707 67.0395 16.392C66.9461 16.5133 66.8761 16.6487 66.8295 16.798C66.7828 16.9473 66.7501 17.092 66.7315 17.232C66.7221 17.372 66.7175 17.4607 66.7175 17.498H66.6475V16H67.4455V16.21ZM71.8695 16H72.6675V17.498H72.5975C72.5975 17.4607 72.5881 17.372 72.5695 17.232C72.5601 17.092 72.5321 16.9473 72.4855 16.798C72.4388 16.6487 72.3641 16.5133 72.2615 16.392C72.1681 16.2707 72.0375 16.21 71.8695 16.21V16ZM74.3609 25.814H73.8009C73.8009 25.9167 73.7776 26.0053 73.7309 26.08C73.6842 26.164 73.6282 26.2293 73.5629 26.276C73.4976 26.3413 73.4182 26.3927 73.3249 26.43V26.5H74.8369V26.43C74.7436 26.3927 74.6642 26.3413 74.5989 26.276C74.5429 26.2293 74.4869 26.164 74.4309 26.08C74.3842 26.0053 74.3609 25.9167 74.3609 25.814ZM79.6109 19.43C79.6109 20.046 79.5269 20.5873 79.3589 21.054C79.2002 21.5113 78.9856 21.8987 78.7149 22.216C78.4536 22.524 78.1502 22.7573 77.8049 22.916C77.4596 23.0653 77.1049 23.14 76.7409 23.14C76.3956 23.14 76.0876 23.084 75.8169 22.972C75.5462 22.86 75.3129 22.7247 75.1169 22.566C74.9209 22.398 74.7622 22.2207 74.6409 22.034C74.5196 21.8473 74.4309 21.684 74.3749 21.544H74.3609V20.578C74.3609 20.8953 74.4216 21.1893 74.5429 21.46C74.6736 21.7213 74.8416 21.95 75.0469 22.146C75.2616 22.3327 75.4996 22.482 75.7609 22.594C76.0316 22.6967 76.3069 22.748 76.5869 22.748C76.9416 22.748 77.2682 22.664 77.5669 22.496C77.8656 22.328 78.1222 22.0947 78.3369 21.796C78.5609 21.4973 78.7336 21.1473 78.8549 20.746C78.9856 20.3447 79.0509 19.906 79.0509 19.43C79.0509 18.954 78.9856 18.5247 78.8549 18.142C78.7336 17.75 78.5609 17.414 78.3369 17.134C78.1222 16.854 77.8656 16.6393 77.5669 16.49C77.2682 16.3313 76.9416 16.252 76.5869 16.252C76.3069 16.252 76.0316 16.308 75.7609 16.42C75.4996 16.5227 75.2616 16.672 75.0469 16.868C74.8416 17.0547 74.6736 17.2833 74.5429 17.554C74.4216 17.8153 74.3609 18.1047 74.3609 18.422V17.456H74.3749C74.4309 17.316 74.5196 17.1527 74.6409 16.966C74.7622 16.7793 74.9209 16.6067 75.1169 16.448C75.3129 16.28 75.5462 16.14 75.8169 16.028C76.0876 15.916 76.3956 15.86 76.7409 15.86C77.1422 15.86 77.5156 15.9393 77.8609 16.098C78.2156 16.2473 78.5189 16.4713 78.7709 16.77C79.0322 17.0687 79.2376 17.442 79.3869 17.89C79.5362 18.338 79.6109 18.8513 79.6109 19.43ZM74.3609 25.814V16.938V16.028L74.3329 16L73.0869 16.588L73.1149 16.658C73.1336 16.6487 73.1756 16.644 73.2409 16.644C73.3156 16.6347 73.3949 16.644 73.4789 16.672C73.5629 16.6907 73.6376 16.728 73.7029 16.784C73.7682 16.8307 73.8009 16.9053 73.8009 17.008V25.814H74.3609ZM80.7289 19.528C80.7289 19.976 80.7756 20.4053 80.8689 20.816C80.9716 21.2173 81.1209 21.572 81.3169 21.88C81.5223 22.188 81.7789 22.4353 82.0869 22.622C82.3949 22.7993 82.7543 22.888 83.1649 22.888C83.4449 22.888 83.6969 22.8553 83.9209 22.79C84.1449 22.7153 84.3503 22.6173 84.5369 22.496C84.7236 22.3653 84.8963 22.216 85.0549 22.048C85.2136 21.8707 85.3676 21.684 85.5169 21.488L85.6149 21.586C85.4843 21.782 85.3396 21.9733 85.1809 22.16C85.0316 22.3467 84.8589 22.5147 84.6629 22.664C84.4669 22.804 84.2476 22.916 84.0049 23C83.7623 23.0933 83.4823 23.14 83.1649 23.14C82.7076 23.14 82.2923 23.0513 81.9189 22.874C81.5456 22.6967 81.2283 22.4493 80.9669 22.132C80.7149 21.8053 80.5189 21.4227 80.3789 20.984C80.2389 20.5453 80.1689 20.06 80.1689 19.528C80.1689 19.0053 80.2483 18.5247 80.4069 18.086C80.5656 17.638 80.7803 17.2553 81.0509 16.938C81.3216 16.6207 81.6343 16.3733 81.9889 16.196C82.3529 16.0187 82.7403 15.93 83.1509 15.93C83.4869 15.93 83.7949 15.9907 84.0749 16.112C84.3643 16.224 84.6116 16.378 84.8169 16.574C85.0316 16.77 85.2043 16.9987 85.3349 17.26C85.4656 17.5213 85.5496 17.7967 85.5869 18.086C85.6056 18.2073 85.6149 18.31 85.6149 18.394C85.6243 18.478 85.6103 18.548 85.5729 18.604C85.5449 18.66 85.4843 18.702 85.3909 18.73C85.3069 18.758 85.1716 18.772 84.9849 18.772H80.7569L80.7989 18.562H85.0689C85.0689 18.2727 85.0316 17.988 84.9569 17.708C84.8823 17.4187 84.7609 17.162 84.5929 16.938C84.4343 16.714 84.2243 16.532 83.9629 16.392C83.7109 16.252 83.4076 16.182 83.0529 16.182C82.6516 16.182 82.3063 16.2847 82.0169 16.49C81.7276 16.6953 81.4849 16.9613 81.2889 17.288C81.1023 17.6053 80.9623 17.9647 80.8689 18.366C80.7756 18.758 80.7289 19.1453 80.7289 19.528ZM89.3379 16.126V22.314H88.7779V16.126H89.3379ZM89.3379 22.314C89.3379 22.4167 89.3612 22.51 89.4079 22.594C89.4639 22.6687 89.5199 22.7293 89.5759 22.776C89.6412 22.8413 89.7205 22.8927 89.8139 22.93V23H88.3019V22.93C88.3952 22.8927 88.4745 22.8413 88.5399 22.776C88.6052 22.7293 88.6612 22.6687 88.7079 22.594C88.7545 22.51 88.7779 22.4167 88.7779 22.314H89.3379ZM86.8459 16H91.2699V16.21H86.8459V16ZM86.8459 16.21C86.6779 16.21 86.5425 16.2707 86.4399 16.392C86.3465 16.5133 86.2765 16.6487 86.2299 16.798C86.1832 16.9473 86.1505 17.092 86.1319 17.232C86.1225 17.372 86.1179 17.4607 86.1179 17.498H86.0479V16H86.8459V16.21ZM91.2699 16H92.0679V17.498H91.9979C91.9979 17.4607 91.9885 17.372 91.9699 17.232C91.9605 17.092 91.9325 16.9473 91.8859 16.798C91.8392 16.6487 91.7645 16.5133 91.6619 16.392C91.5685 16.2707 91.4379 16.21 91.2699 16.21V16ZM97.6673 20.984C97.6673 21.432 97.574 21.7913 97.3873 22.062C97.2006 22.3233 96.9673 22.524 96.6873 22.664C96.4073 22.804 96.1086 22.8973 95.7913 22.944C95.474 22.9813 95.18 23 94.9093 23H92.4873V22.93C92.618 22.9113 92.7393 22.8273 92.8513 22.678C92.9726 22.5287 93.0333 22.3747 93.0333 22.216V16.686C93.0333 16.5833 93.01 16.4947 92.9633 16.42C92.9166 16.336 92.8606 16.2707 92.7953 16.224C92.73 16.1587 92.6506 16.1073 92.5573 16.07V16H94.0693V16.07C93.976 16.1073 93.8966 16.1587 93.8313 16.224C93.7753 16.2707 93.7193 16.336 93.6633 16.42C93.6166 16.4947 93.5933 16.5833 93.5933 16.686V19.08C93.836 19.08 94.102 19.08 94.3913 19.08C94.69 19.0707 94.9886 19.0753 95.2873 19.094C95.5953 19.1127 95.8893 19.1547 96.1693 19.22C96.4586 19.2853 96.7106 19.388 96.9253 19.528C97.1493 19.668 97.3266 19.8547 97.4573 20.088C97.5973 20.3213 97.6673 20.62 97.6673 20.984ZM94.9093 22.79C95.1333 22.79 95.3713 22.7713 95.6233 22.734C95.8846 22.6967 96.1226 22.6173 96.3373 22.496C96.5613 22.3653 96.7433 22.1787 96.8833 21.936C97.0326 21.6933 97.1073 21.3667 97.1073 20.956C97.1073 20.4893 96.9813 20.1393 96.7293 19.906C96.4866 19.6727 96.1833 19.514 95.8193 19.43C95.4646 19.3367 95.082 19.29 94.6713 19.29C94.27 19.29 93.9106 19.29 93.5933 19.29V22.79H94.9093ZM102.205 16.686V22.314H101.645V16.686H102.205ZM102.205 22.314C102.205 22.4167 102.228 22.51 102.275 22.594C102.331 22.6687 102.387 22.7293 102.443 22.776C102.508 22.8413 102.588 22.8927 102.681 22.93V23H101.169V22.93C101.262 22.8927 101.342 22.8413 101.407 22.776C101.472 22.7293 101.528 22.6687 101.575 22.594C101.622 22.51 101.645 22.4167 101.645 22.314H102.205ZM106.671 16.686V22.314H106.111V16.686H106.671ZM106.671 22.314C106.671 22.4167 106.694 22.51 106.741 22.594C106.797 22.6687 106.853 22.7293 106.909 22.776C106.974 22.8413 107.054 22.8927 107.147 22.93V23H105.635V22.93C105.728 22.8927 105.808 22.8413 105.873 22.776C105.938 22.7293 105.994 22.6687 106.041 22.594C106.088 22.51 106.111 22.4167 106.111 22.314H106.671ZM101.939 19.122H106.377V19.332H101.939V19.122ZM101.645 16.686C101.645 16.5833 101.622 16.4947 101.575 16.42C101.528 16.336 101.472 16.2707 101.407 16.224C101.342 16.1587 101.262 16.1073 101.169 16.07V16H102.681V16.07C102.588 16.1073 102.508 16.1587 102.443 16.224C102.387 16.2707 102.331 16.336 102.275 16.42C102.228 16.4947 102.205 16.5833 102.205 16.686H101.645ZM106.111 16.686C106.111 16.5833 106.088 16.4947 106.041 16.42C105.994 16.336 105.938 16.2707 105.873 16.224C105.808 16.1587 105.728 16.1073 105.635 16.07V16H107.147V16.07C107.054 16.1073 106.974 16.1587 106.909 16.224C106.853 16.2707 106.797 16.336 106.741 16.42C106.694 16.4947 106.671 16.5833 106.671 16.686H106.111ZM112.177 23L112.149 22.972V18.268C112.149 17.5773 111.972 17.0453 111.617 16.672C111.262 16.2987 110.777 16.112 110.161 16.112C109.825 16.112 109.517 16.2007 109.237 16.378C108.957 16.5553 108.724 16.8353 108.537 17.218C108.462 17.3487 108.369 17.428 108.257 17.456C108.145 17.4747 108.038 17.456 107.935 17.4C107.804 17.3253 107.744 17.2227 107.753 17.092C107.772 16.9613 107.809 16.8587 107.865 16.784C108.052 16.5413 108.327 16.3267 108.691 16.14C109.064 15.9533 109.568 15.86 110.203 15.86C110.53 15.86 110.842 15.9067 111.141 16C111.44 16.0933 111.706 16.238 111.939 16.434C112.172 16.63 112.359 16.882 112.499 17.19C112.639 17.4887 112.709 17.848 112.709 18.268V21.992C112.709 22.0947 112.742 22.174 112.807 22.23C112.872 22.2767 112.947 22.314 113.031 22.342C113.115 22.3607 113.194 22.37 113.269 22.37C113.344 22.3607 113.386 22.3513 113.395 22.342L113.423 22.412L112.177 23ZM112.149 21.6C111.916 21.8427 111.696 22.062 111.491 22.258C111.295 22.4447 111.094 22.6033 110.889 22.734C110.684 22.8647 110.46 22.9627 110.217 23.028C109.984 23.1027 109.718 23.14 109.419 23.14C109.102 23.14 108.817 23.0933 108.565 23C108.313 22.8973 108.103 22.762 107.935 22.594C107.767 22.426 107.636 22.23 107.543 22.006C107.459 21.782 107.417 21.544 107.417 21.292C107.417 20.788 107.571 20.3773 107.879 20.06C108.196 19.7333 108.593 19.4627 109.069 19.248C109.545 19.0333 110.058 18.856 110.609 18.716C111.16 18.576 111.673 18.4313 112.149 18.282V18.492C111.645 18.6413 111.146 18.786 110.651 18.926C110.156 19.066 109.713 19.2387 109.321 19.444C108.929 19.64 108.607 19.8873 108.355 20.186C108.112 20.4753 107.986 20.844 107.977 21.292C107.977 21.4973 108.01 21.6933 108.075 21.88C108.14 22.0667 108.243 22.23 108.383 22.37C108.523 22.51 108.696 22.622 108.901 22.706C109.116 22.79 109.358 22.832 109.629 22.832C109.881 22.832 110.119 22.79 110.343 22.706C110.567 22.622 110.782 22.51 110.987 22.37C111.192 22.2207 111.388 22.0573 111.575 21.88C111.771 21.6933 111.962 21.502 112.149 21.306V21.6ZM118.361 19.15L120.349 16.854H120.615L118.501 19.304L118.361 19.15ZM117.395 16.686H117.955V22.314H117.395V16.686ZM117.955 22.314C117.955 22.4167 117.978 22.51 118.025 22.594C118.081 22.6687 118.137 22.7293 118.193 22.776C118.258 22.8413 118.338 22.8927 118.431 22.93V23H116.919V22.93C117.012 22.8927 117.092 22.8413 117.157 22.776C117.222 22.7293 117.278 22.6687 117.325 22.594C117.372 22.51 117.395 22.4167 117.395 22.314H117.955ZM117.395 16.686C117.395 16.5833 117.372 16.4947 117.325 16.42C117.278 16.336 117.222 16.2707 117.157 16.224C117.092 16.1587 117.012 16.1073 116.919 16.07V16H118.431V16.07C118.338 16.1073 118.258 16.1587 118.193 16.224C118.137 16.2707 118.081 16.336 118.025 16.42C117.978 16.4947 117.955 16.5833 117.955 16.686H117.395ZM121.763 16.826C121.67 16.826 121.576 16.8027 121.483 16.756C121.39 16.7093 121.296 16.672 121.203 16.644C121.119 16.616 121.026 16.6113 120.923 16.63C120.83 16.6487 120.727 16.7233 120.615 16.854H120.349C120.377 16.826 120.433 16.7607 120.517 16.658C120.601 16.5553 120.704 16.4527 120.825 16.35C120.956 16.238 121.1 16.14 121.259 16.056C121.427 15.972 121.595 15.93 121.763 15.93C121.894 15.93 122.001 15.972 122.085 16.056C122.169 16.14 122.211 16.2473 122.211 16.378C122.211 16.5087 122.169 16.616 122.085 16.7C122.001 16.784 121.894 16.826 121.763 16.826ZM117.955 19.122H118.655C118.814 19.122 118.949 19.15 119.061 19.206C119.182 19.2527 119.285 19.318 119.369 19.402C119.462 19.4767 119.546 19.5607 119.621 19.654C119.696 19.738 119.766 19.822 119.831 19.906L120.909 21.236C121.124 21.4787 121.315 21.7073 121.483 21.922C121.651 22.1273 121.81 22.3047 121.959 22.454C122.118 22.6033 122.276 22.72 122.435 22.804C122.603 22.888 122.799 22.93 123.023 22.93V23H122.169C121.992 23 121.852 22.9813 121.749 22.944C121.656 22.8973 121.558 22.818 121.455 22.706C121.352 22.594 121.226 22.4353 121.077 22.23C120.928 22.0247 120.713 21.7633 120.433 21.446L119.187 19.906C119.019 19.6913 118.846 19.542 118.669 19.458C118.492 19.374 118.254 19.332 117.955 19.332V19.122ZM127.503 23L127.475 22.972V18.268C127.475 17.5773 127.298 17.0453 126.943 16.672C126.588 16.2987 126.103 16.112 125.487 16.112C125.151 16.112 124.843 16.2007 124.563 16.378C124.283 16.5553 124.05 16.8353 123.863 17.218C123.788 17.3487 123.695 17.428 123.583 17.456C123.471 17.4747 123.364 17.456 123.261 17.4C123.13 17.3253 123.07 17.2227 123.079 17.092C123.098 16.9613 123.135 16.8587 123.191 16.784C123.378 16.5413 123.653 16.3267 124.017 16.14C124.39 15.9533 124.894 15.86 125.529 15.86C125.856 15.86 126.168 15.9067 126.467 16C126.766 16.0933 127.032 16.238 127.265 16.434C127.498 16.63 127.685 16.882 127.825 17.19C127.965 17.4887 128.035 17.848 128.035 18.268V21.992C128.035 22.0947 128.068 22.174 128.133 22.23C128.198 22.2767 128.273 22.314 128.357 22.342C128.441 22.3607 128.52 22.37 128.595 22.37C128.67 22.3607 128.712 22.3513 128.721 22.342L128.749 22.412L127.503 23ZM127.475 21.6C127.242 21.8427 127.022 22.062 126.817 22.258C126.621 22.4447 126.42 22.6033 126.215 22.734C126.01 22.8647 125.786 22.9627 125.543 23.028C125.31 23.1027 125.044 23.14 124.745 23.14C124.428 23.14 124.143 23.0933 123.891 23C123.639 22.8973 123.429 22.762 123.261 22.594C123.093 22.426 122.962 22.23 122.869 22.006C122.785 21.782 122.743 21.544 122.743 21.292C122.743 20.788 122.897 20.3773 123.205 20.06C123.522 19.7333 123.919 19.4627 124.395 19.248C124.871 19.0333 125.384 18.856 125.935 18.716C126.486 18.576 126.999 18.4313 127.475 18.282V18.492C126.971 18.6413 126.472 18.786 125.977 18.926C125.482 19.066 125.039 19.2387 124.647 19.444C124.255 19.64 123.933 19.8873 123.681 20.186C123.438 20.4753 123.312 20.844 123.303 21.292C123.303 21.4973 123.336 21.6933 123.401 21.88C123.466 22.0667 123.569 22.23 123.709 22.37C123.849 22.51 124.022 22.622 124.227 22.706C124.442 22.79 124.684 22.832 124.955 22.832C125.207 22.832 125.445 22.79 125.669 22.706C125.893 22.622 126.108 22.51 126.313 22.37C126.518 22.2207 126.714 22.0573 126.901 21.88C127.097 21.6933 127.288 21.502 127.475 21.306V21.6ZM129.882 25.814H129.322C129.322 25.9167 129.299 26.0053 129.252 26.08C129.206 26.164 129.15 26.2293 129.084 26.276C129.019 26.3413 128.94 26.3927 128.846 26.43V26.5H130.358V26.43C130.265 26.3927 130.186 26.3413 130.12 26.276C130.064 26.2293 130.008 26.164 129.952 26.08C129.906 26.0053 129.882 25.9167 129.882 25.814ZM135.132 19.43C135.132 20.046 135.048 20.5873 134.88 21.054C134.722 21.5113 134.507 21.8987 134.236 22.216C133.975 22.524 133.672 22.7573 133.326 22.916C132.981 23.0653 132.626 23.14 132.262 23.14C131.917 23.14 131.609 23.084 131.338 22.972C131.068 22.86 130.834 22.7247 130.638 22.566C130.442 22.398 130.284 22.2207 130.162 22.034C130.041 21.8473 129.952 21.684 129.896 21.544H129.882V20.578C129.882 20.8953 129.943 21.1893 130.064 21.46C130.195 21.7213 130.363 21.95 130.568 22.146C130.783 22.3327 131.021 22.482 131.282 22.594C131.553 22.6967 131.828 22.748 132.108 22.748C132.463 22.748 132.79 22.664 133.088 22.496C133.387 22.328 133.644 22.0947 133.858 21.796C134.082 21.4973 134.255 21.1473 134.376 20.746C134.507 20.3447 134.572 19.906 134.572 19.43C134.572 18.954 134.507 18.5247 134.376 18.142C134.255 17.75 134.082 17.414 133.858 17.134C133.644 16.854 133.387 16.6393 133.088 16.49C132.79 16.3313 132.463 16.252 132.108 16.252C131.828 16.252 131.553 16.308 131.282 16.42C131.021 16.5227 130.783 16.672 130.568 16.868C130.363 17.0547 130.195 17.2833 130.064 17.554C129.943 17.8153 129.882 18.1047 129.882 18.422V17.456H129.896C129.952 17.316 130.041 17.1527 130.162 16.966C130.284 16.7793 130.442 16.6067 130.638 16.448C130.834 16.28 131.068 16.14 131.338 16.028C131.609 15.916 131.917 15.86 132.262 15.86C132.664 15.86 133.037 15.9393 133.382 16.098C133.737 16.2473 134.04 16.4713 134.292 16.77C134.554 17.0687 134.759 17.442 134.908 17.89C135.058 18.338 135.132 18.8513 135.132 19.43ZM129.882 25.814V16.938V16.028L129.854 16L128.608 16.588L128.636 16.658C128.655 16.6487 128.697 16.644 128.762 16.644C128.837 16.6347 128.916 16.644 129 16.672C129.084 16.6907 129.159 16.728 129.224 16.784C129.29 16.8307 129.322 16.9053 129.322 17.008V25.814H129.882ZM138.42 16.126V22.314H137.86V16.126H138.42ZM138.42 22.314C138.42 22.4167 138.443 22.51 138.49 22.594C138.546 22.6687 138.602 22.7293 138.658 22.776C138.723 22.8413 138.803 22.8927 138.896 22.93V23H137.384V22.93C137.477 22.8927 137.557 22.8413 137.622 22.776C137.687 22.7293 137.743 22.6687 137.79 22.594C137.837 22.51 137.86 22.4167 137.86 22.314H138.42ZM135.928 16H140.352V16.21H135.928V16ZM135.928 16.21C135.76 16.21 135.625 16.2707 135.522 16.392C135.429 16.5133 135.359 16.6487 135.312 16.798C135.265 16.9473 135.233 17.092 135.214 17.232C135.205 17.372 135.2 17.4607 135.2 17.498H135.13V16H135.928V16.21ZM140.352 16H141.15V17.498H141.08C141.08 17.4607 141.071 17.372 141.052 17.232C141.043 17.092 141.015 16.9473 140.968 16.798C140.921 16.6487 140.847 16.5133 140.744 16.392C140.651 16.2707 140.52 16.21 140.352 16.21V16ZM141.842 19.528C141.842 19.976 141.889 20.4053 141.982 20.816C142.085 21.2173 142.234 21.572 142.43 21.88C142.636 22.188 142.892 22.4353 143.2 22.622C143.508 22.7993 143.868 22.888 144.278 22.888C144.558 22.888 144.81 22.8553 145.034 22.79C145.258 22.7153 145.464 22.6173 145.65 22.496C145.837 22.3653 146.01 22.216 146.168 22.048C146.327 21.8707 146.481 21.684 146.63 21.488L146.728 21.586C146.598 21.782 146.453 21.9733 146.294 22.16C146.145 22.3467 145.972 22.5147 145.776 22.664C145.58 22.804 145.361 22.916 145.118 23C144.876 23.0933 144.596 23.14 144.278 23.14C143.821 23.14 143.406 23.0513 143.032 22.874C142.659 22.6967 142.342 22.4493 142.08 22.132C141.828 21.8053 141.632 21.4227 141.492 20.984C141.352 20.5453 141.282 20.06 141.282 19.528C141.282 19.0053 141.362 18.5247 141.52 18.086C141.679 17.638 141.894 17.2553 142.164 16.938C142.435 16.6207 142.748 16.3733 143.102 16.196C143.466 16.0187 143.854 15.93 144.264 15.93C144.6 15.93 144.908 15.9907 145.188 16.112C145.478 16.224 145.725 16.378 145.93 16.574C146.145 16.77 146.318 16.9987 146.448 17.26C146.579 17.5213 146.663 17.7967 146.7 18.086C146.719 18.2073 146.728 18.31 146.728 18.394C146.738 18.478 146.724 18.548 146.686 18.604C146.658 18.66 146.598 18.702 146.504 18.73C146.42 18.758 146.285 18.772 146.098 18.772H141.87L141.912 18.562H146.182C146.182 18.2727 146.145 17.988 146.07 17.708C145.996 17.4187 145.874 17.162 145.706 16.938C145.548 16.714 145.338 16.532 145.076 16.392C144.824 16.252 144.521 16.182 144.166 16.182C143.765 16.182 143.42 16.2847 143.13 16.49C142.841 16.6953 142.598 16.9613 142.402 17.288C142.216 17.6053 142.076 17.9647 141.982 18.366C141.889 18.758 141.842 19.1453 141.842 19.528Z" fill="black" fill-opacity="0.76"/>
</svg>
