<svg width="329" height="92" viewBox="0 0 329 92" fill="none" xmlns="http://www.w3.org/2000/svg">
<path d="M1.62375 14.8C1.62375 16.2507 1.84775 17.6373 2.29575 18.96C2.74375 20.2613 3.35175 21.4133 4.11975 22.416C4.88775 23.4187 5.78375 24.2187 6.80775 24.816C7.85308 25.392 8.95175 25.68 10.1038 25.68C11.8318 25.68 13.2931 25.328 14.4878 24.624C15.7038 23.92 16.7384 22.832 17.5918 21.36L18.0078 21.584C17.6238 22.2453 17.1758 22.8747 16.6638 23.472C16.1731 24.048 15.6078 24.5493 14.9678 24.976C14.3278 25.3813 13.6024 25.712 12.7918 25.968C12.0024 26.2027 11.1064 26.32 10.1038 26.32C8.52508 26.32 7.12775 26.032 5.91175 25.456C4.69575 24.8587 3.67175 24.048 2.83975 23.024C2.02908 22 1.41042 20.784 0.98375 19.376C0.557083 17.968 0.34375 16.432 0.34375 14.768C0.34375 13.104 0.59975 11.568 1.11175 10.16C1.62375 8.752 2.32775 7.536 3.22375 6.512C4.14108 5.488 5.22908 4.69867 6.48775 4.144C7.74642 3.568 9.11175 3.28 10.5838 3.28C11.3944 3.28 12.1091 3.376 12.7278 3.568C13.3464 3.76 13.8798 3.99467 14.3278 4.272C14.7971 4.528 15.2024 4.80533 15.5438 5.104C15.8851 5.38133 16.1944 5.616 16.4718 5.808C16.6211 5.91467 16.7491 5.968 16.8558 5.968C17.0691 5.968 17.2184 5.84 17.3038 5.584C17.4104 5.30667 17.4638 4.98667 17.4638 4.624H17.6238V9.84H17.4638C17.2718 9.008 16.9518 8.24 16.5037 7.536C16.0771 6.832 15.5438 6.224 14.9038 5.712C14.2638 5.2 13.5491 4.80533 12.7598 4.528C11.9704 4.22933 11.1384 4.08 10.2638 4.08C8.94108 4.08 7.74642 4.368 6.67975 4.944C5.61308 5.52 4.70642 6.29867 3.95975 7.28C3.21308 8.26133 2.63708 9.40267 2.23175 10.704C1.82642 11.984 1.62375 13.3493 1.62375 14.8ZM27.056 26.16C26.6933 26.16 26.4267 26.0533 26.256 25.84C26.0853 25.6267 26 25.4347 26 25.264C26 24.944 26.096 24.7093 26.288 24.56C26.48 24.3893 26.736 24.304 27.056 24.304C27.888 24.304 28.6453 24.1227 29.328 23.76C30.032 23.3973 30.5973 22.8427 31.024 22.096C31.3227 21.5627 31.5893 20.912 31.824 20.144C32.0587 19.376 32.336 18.4053 32.656 17.232C32.72 17.04 32.7947 16.6347 32.88 16.016C32.9867 15.376 33.0933 14.576 33.2 13.616C33.3067 12.656 33.392 11.5467 33.456 10.288C33.5413 9.008 33.5947 7.62133 33.616 6.128C33.616 5.72267 33.5093 5.37067 33.296 5.072C33.104 4.77333 32.88 4.528 32.624 4.336C32.3893 4.144 32.1653 4.00533 31.952 3.92C31.7387 3.81333 31.6107 3.76 31.568 3.76V3.6H45.264V3.76C45.2213 3.76 45.104 3.81333 44.912 3.92C44.7413 4.00533 44.5493 4.144 44.336 4.336C44.1227 4.528 43.9307 4.77333 43.76 5.072C43.6107 5.37067 43.536 5.72267 43.536 6.128V23.472C43.536 23.8773 43.6107 24.2293 43.76 24.528C43.9307 24.8267 44.1227 25.072 44.336 25.264C44.5493 25.456 44.7413 25.6053 44.912 25.712C45.104 25.7973 45.2213 25.84 45.264 25.84V26H40.528V25.84C40.848 25.6907 41.136 25.4987 41.392 25.264C41.6267 25.0507 41.8293 24.8053 42 24.528C42.1707 24.2293 42.256 23.8773 42.256 23.472V4.08H34.16V6.128C34.16 7.216 34.1387 8.29333 34.096 9.36C34.0533 10.4053 34 11.376 33.936 12.272C33.8933 13.168 33.8293 13.9573 33.744 14.64C33.68 15.3227 33.616 15.856 33.552 16.24C33.3813 17.2853 33.1573 18.3947 32.88 19.568C32.6027 20.7413 32.2187 21.8187 31.728 22.8C31.2373 23.76 30.6187 24.56 29.872 25.2C29.1253 25.84 28.1867 26.16 27.056 26.16ZM50.1643 23.472C50.1643 23.8773 50.2496 24.2293 50.4203 24.528C50.6123 24.8053 50.8149 25.0507 51.0283 25.264C51.2843 25.4987 51.5723 25.6907 51.8923 25.84V26H47.1562V25.84C47.4763 25.6907 47.7643 25.4987 48.0203 25.264C48.2549 25.0507 48.4576 24.8053 48.6283 24.528C48.7989 24.2293 48.8843 23.8773 48.8843 23.472V6.128C48.8843 5.72267 48.7989 5.37067 48.6283 5.072C48.4576 4.77333 48.2549 4.528 48.0203 4.336C47.7643 4.10133 47.4763 3.90933 47.1562 3.76V3.6H51.8923V3.76C51.5723 3.90933 51.2843 4.10133 51.0283 4.336C50.8149 4.528 50.6123 4.77333 50.4203 5.072C50.2496 5.37067 50.1643 5.72267 50.1643 6.128V14.032H54.2283C54.2923 12.4533 54.5589 11.0133 55.0283 9.712C55.4976 8.38933 56.1376 7.25867 56.9483 6.32C57.7803 5.36 58.7723 4.61333 59.9243 4.08C61.0763 3.54667 62.3669 3.28 63.7963 3.28C65.2683 3.28 66.5909 3.568 67.7643 4.144C68.9589 4.69867 69.9723 5.488 70.8043 6.512C71.6363 7.536 72.2763 8.752 72.7243 10.16C73.1723 11.568 73.3963 13.1147 73.3963 14.8C73.3963 16.4853 73.1723 18.032 72.7243 19.44C72.2763 20.848 71.6363 22.064 70.8043 23.088C69.9723 24.112 68.9589 24.912 67.7643 25.488C66.5909 26.0427 65.2683 26.32 63.7963 26.32C62.3243 26.32 60.9909 26.0427 59.7963 25.488C58.6229 24.912 57.6203 24.112 56.7883 23.088C55.9563 22.064 55.3163 20.848 54.8683 19.44C54.4203 18.032 54.1963 16.4853 54.1963 14.8V14.512H50.1643V23.472ZM63.7963 25.84C65.1189 25.84 66.2923 25.5413 67.3163 24.944C68.3616 24.3253 69.2363 23.504 69.9403 22.48C70.6443 21.456 71.1776 20.2827 71.5403 18.96C71.9243 17.616 72.1163 16.2293 72.1163 14.8C72.1163 13.3493 71.9243 11.9627 71.5403 10.64C71.1776 9.31733 70.6443 8.144 69.9403 7.12C69.2363 6.096 68.3616 5.28533 67.3163 4.688C66.2923 4.06933 65.1189 3.76 63.7963 3.76C62.4736 3.76 61.2896 4.06933 60.2443 4.688C59.2203 5.28533 58.3563 6.096 57.6523 7.12C56.9483 8.144 56.4043 9.31733 56.0203 10.64C55.6576 11.9627 55.4763 13.3493 55.4763 14.8C55.4763 16.2293 55.6576 17.616 56.0203 18.96C56.4043 20.2827 56.9483 21.456 57.6523 22.48C58.3563 23.504 59.2203 24.3253 60.2443 24.944C61.2896 25.5413 62.4736 25.84 63.7963 25.84ZM80.4633 13.52C81.7433 13.52 82.9913 13.584 84.2073 13.712C85.4233 13.84 86.5006 14.128 87.4393 14.576C88.3993 15.024 89.1673 15.6747 89.7433 16.528C90.3193 17.3813 90.6073 18.5333 90.6073 19.984C90.6073 21.328 90.3086 22.3947 89.7113 23.184C89.1139 23.9733 88.3673 24.5813 87.4713 25.008C86.5753 25.4133 85.6153 25.68 84.5913 25.808C83.5673 25.936 82.6286 26 81.7753 26H74.0312V25.84C74.2233 25.7973 74.4259 25.7013 74.6393 25.552C74.8526 25.4027 75.0339 25.2213 75.1833 25.008C75.3539 24.7733 75.4926 24.528 75.5993 24.272C75.7059 23.9947 75.7593 23.728 75.7593 23.472V6.128C75.7593 5.72267 75.6739 5.37067 75.5033 5.072C75.3539 4.77333 75.1726 4.528 74.9593 4.336C74.7459 4.144 74.5433 4.00533 74.3513 3.92C74.1806 3.81333 74.0739 3.76 74.0312 3.76V3.6H89.6473V8.208H89.4873C89.4873 8.08 89.4659 7.80267 89.4233 7.376C89.4019 6.928 89.3059 6.45867 89.1353 5.968C88.9859 5.47733 88.7513 5.04 88.4313 4.656C88.1113 4.272 87.6739 4.08 87.1193 4.08H77.0393V13.552C76.9966 13.552 77.1459 13.552 77.4873 13.552C77.8286 13.552 78.2126 13.552 78.6393 13.552C79.0873 13.5307 79.5033 13.52 79.8873 13.52C80.2713 13.52 80.4633 13.52 80.4633 13.52ZM81.7753 25.52C82.4793 25.52 83.2686 25.456 84.1433 25.328C85.0179 25.1787 85.8393 24.912 86.6073 24.528C87.3753 24.1227 88.0153 23.5573 88.5273 22.832C89.0606 22.0853 89.3273 21.1147 89.3273 19.92C89.3273 18.5333 89.0286 17.4453 88.4313 16.656C87.8553 15.8667 87.1193 15.28 86.2233 14.896C85.3273 14.512 84.3459 14.2773 83.2793 14.192C82.2126 14.0853 81.1993 14.032 80.2393 14.032H77.0393V25.52H81.7753ZM101.475 3.28C102.947 3.28 104.27 3.568 105.443 4.144C106.638 4.69867 107.651 5.488 108.483 6.512C109.315 7.536 109.955 8.752 110.403 10.16C110.851 11.568 111.075 13.1147 111.075 14.8C111.075 16.4853 110.851 18.032 110.403 19.44C109.955 20.848 109.315 22.064 108.483 23.088C107.651 24.112 106.638 24.912 105.443 25.488C104.27 26.0427 102.947 26.32 101.475 26.32C100.003 26.32 98.6697 26.0427 97.475 25.488C96.3017 24.912 95.299 24.112 94.467 23.088C93.635 22.064 92.995 20.848 92.547 19.44C92.099 18.032 91.875 16.4853 91.875 14.8C91.875 13.1147 92.099 11.568 92.547 10.16C92.995 8.752 93.635 7.536 94.467 6.512C95.299 5.488 96.3017 4.69867 97.475 4.144C98.6697 3.568 100.003 3.28 101.475 3.28ZM101.475 25.84C102.798 25.84 103.971 25.5413 104.995 24.944C106.04 24.3253 106.915 23.504 107.619 22.48C108.323 21.456 108.856 20.2827 109.219 18.96C109.603 17.616 109.795 16.2293 109.795 14.8C109.795 13.3493 109.603 11.9627 109.219 10.64C108.856 9.31733 108.323 8.144 107.619 7.12C106.915 6.096 106.04 5.28533 104.995 4.688C103.971 4.06933 102.798 3.76 101.475 3.76C100.152 3.76 98.9683 4.06933 97.923 4.688C96.899 5.28533 96.035 6.096 95.331 7.12C94.627 8.144 94.083 9.31733 93.699 10.64C93.3363 11.9627 93.155 13.3493 93.155 14.8C93.155 16.2293 93.3363 17.616 93.699 18.96C94.083 20.2827 94.627 21.456 95.331 22.48C96.035 23.504 96.899 24.3253 97.923 24.944C98.9683 25.5413 100.152 25.84 101.475 25.84ZM113.416 6.128C113.416 5.872 113.362 5.616 113.256 5.36C113.149 5.104 113.01 4.86933 112.84 4.656C112.69 4.42133 112.509 4.22933 112.296 4.08C112.104 3.90933 111.901 3.80267 111.688 3.76V3.6H118.344C120.605 3.6 122.408 4.02667 123.752 4.88C125.096 5.712 125.768 7.024 125.768 8.816C125.768 9.328 125.693 9.85067 125.544 10.384C125.416 10.896 125.181 11.376 124.84 11.824C124.52 12.2507 124.082 12.6347 123.528 12.976C122.973 13.296 122.28 13.5307 121.448 13.68C122.408 13.7227 123.304 13.872 124.136 14.128C124.968 14.3627 125.682 14.7253 126.28 15.216C126.898 15.7067 127.378 16.3467 127.72 17.136C128.082 17.904 128.264 18.8533 128.264 19.984C128.264 21.328 127.965 22.3947 127.368 23.184C126.77 23.9733 126.024 24.5813 125.128 25.008C124.232 25.4133 123.272 25.68 122.248 25.808C121.224 25.936 120.285 26 119.432 26H111.688V25.84C111.88 25.7973 112.082 25.7013 112.296 25.552C112.509 25.4027 112.69 25.2213 112.84 25.008C113.01 24.7733 113.149 24.528 113.256 24.272C113.362 23.9947 113.416 23.728 113.416 23.472V6.128ZM114.696 13.552C114.653 13.552 114.845 13.552 115.272 13.552C115.698 13.552 116.178 13.552 116.712 13.552C117.245 13.552 117.736 13.552 118.184 13.552C118.653 13.5307 118.888 13.52 118.888 13.52C120.68 13.4133 122.056 12.976 123.016 12.208C123.997 11.44 124.488 10.3093 124.488 8.816C124.488 7.32267 123.954 6.16 122.888 5.328C121.821 4.496 120.2 4.08 118.024 4.08H114.696V13.552ZM119.432 25.52C120.136 25.52 120.925 25.456 121.8 25.328C122.674 25.1787 123.496 24.912 124.264 24.528C125.032 24.1227 125.672 23.5573 126.184 22.832C126.717 22.0853 126.984 21.1147 126.984 19.92C126.984 18.9813 126.845 18.192 126.568 17.552C126.29 16.912 125.917 16.3787 125.448 15.952C125 15.5253 124.466 15.1947 123.848 14.96C123.25 14.7253 122.61 14.544 121.928 14.416C121.266 14.288 120.584 14.2027 119.88 14.16C119.197 14.1173 118.536 14.0747 117.896 14.032H114.696V25.52H119.432ZM129.978 6.128C129.978 5.72267 129.893 5.37067 129.722 5.072C129.551 4.77333 129.349 4.528 129.114 4.336C128.858 4.10133 128.57 3.90933 128.25 3.76V3.6H132.986V3.76C132.666 3.90933 132.378 4.10133 132.122 4.336C131.909 4.528 131.706 4.77333 131.514 5.072C131.343 5.37067 131.258 5.72267 131.258 6.128V13.552C131.215 13.552 131.333 13.552 131.61 13.552C131.887 13.552 132.207 13.552 132.57 13.552C132.933 13.5307 133.263 13.52 133.562 13.52C133.882 13.52 134.042 13.52 134.042 13.52C135.322 13.52 136.57 13.584 137.786 13.712C139.002 13.84 140.079 14.128 141.018 14.576C141.978 15.024 142.746 15.6747 143.322 16.528C143.898 17.3813 144.186 18.5333 144.186 19.984C144.186 21.328 143.887 22.3947 143.29 23.184C142.693 23.9733 141.946 24.5813 141.05 25.008C140.154 25.4133 139.194 25.68 138.17 25.808C137.146 25.936 136.207 26 135.354 26H128.25V25.84C128.442 25.7973 128.645 25.7013 128.858 25.552C129.071 25.4027 129.253 25.2213 129.402 25.008C129.573 24.7733 129.711 24.528 129.818 24.272C129.925 23.9947 129.978 23.728 129.978 23.472V6.128ZM135.354 25.52C136.058 25.52 136.847 25.456 137.722 25.328C138.597 25.1787 139.418 24.912 140.186 24.528C140.954 24.1227 141.594 23.5573 142.106 22.832C142.639 22.0853 142.906 21.1147 142.906 19.92C142.906 18.5333 142.607 17.4453 142.01 16.656C141.434 15.8667 140.698 15.28 139.802 14.896C138.906 14.512 137.925 14.2773 136.858 14.192C135.791 14.0853 134.778 14.032 133.818 14.032H131.258V25.52H135.354ZM147.196 23.472C147.196 23.8773 147.281 24.2293 147.452 24.528C147.644 24.8053 147.846 25.0507 148.06 25.264C148.316 25.4987 148.604 25.6907 148.924 25.84V26H144.188V25.84C144.508 25.6907 144.796 25.4987 145.052 25.264C145.286 25.0507 145.489 24.8053 145.66 24.528C145.83 24.2293 145.916 23.8773 145.916 23.472V6.128C145.916 5.72267 145.83 5.37067 145.66 5.072C145.489 4.77333 145.286 4.528 145.052 4.336C144.796 4.10133 144.508 3.90933 144.188 3.76V3.6H148.924V3.76C148.604 3.90933 148.316 4.10133 148.06 4.336C147.846 4.528 147.644 4.77333 147.452 5.072C147.281 5.37067 147.196 5.72267 147.196 6.128V14.032H151.26C151.324 12.4533 151.59 11.0133 152.06 9.712C152.529 8.38933 153.169 7.25867 153.98 6.32C154.812 5.36 155.804 4.61333 156.956 4.08C158.108 3.54667 159.398 3.28 160.828 3.28C162.3 3.28 163.622 3.568 164.796 4.144C165.99 4.69867 167.004 5.488 167.836 6.512C168.668 7.536 169.308 8.752 169.756 10.16C170.204 11.568 170.428 13.1147 170.428 14.8C170.428 16.4853 170.204 18.032 169.756 19.44C169.308 20.848 168.668 22.064 167.836 23.088C167.004 24.112 165.99 24.912 164.796 25.488C163.622 26.0427 162.3 26.32 160.828 26.32C159.356 26.32 158.022 26.0427 156.828 25.488C155.654 24.912 154.652 24.112 153.82 23.088C152.988 22.064 152.348 20.848 151.9 19.44C151.452 18.032 151.228 16.4853 151.228 14.8V14.512H147.196V23.472ZM160.828 25.84C162.15 25.84 163.324 25.5413 164.348 24.944C165.393 24.3253 166.268 23.504 166.972 22.48C167.676 21.456 168.209 20.2827 168.572 18.96C168.956 17.616 169.148 16.2293 169.148 14.8C169.148 13.3493 168.956 11.9627 168.572 10.64C168.209 9.31733 167.676 8.144 166.972 7.12C166.268 6.096 165.393 5.28533 164.348 4.688C163.324 4.06933 162.15 3.76 160.828 3.76C159.505 3.76 158.321 4.06933 157.276 4.688C156.252 5.28533 155.388 6.096 154.684 7.12C153.98 8.144 153.436 9.31733 153.052 10.64C152.689 11.9627 152.508 13.3493 152.508 14.8C152.508 16.2293 152.689 17.616 153.052 18.96C153.436 20.2827 153.98 21.456 154.684 22.48C155.388 23.504 156.252 24.3253 157.276 24.944C158.321 25.5413 159.505 25.84 160.828 25.84ZM171.831 25.168C171.831 24.5707 172.151 24.272 172.791 24.272C173.196 24.272 173.495 24.4 173.687 24.656C173.879 24.8907 173.975 25.1893 173.975 25.552C173.975 26 173.857 26.4053 173.623 26.768C173.388 27.152 172.993 27.5147 172.439 27.856L172.311 27.696C172.545 27.5467 172.748 27.3653 172.919 27.152C173.111 26.9387 173.249 26.736 173.335 26.544C173.441 26.3733 173.484 26.224 173.463 26.096C173.463 25.9893 173.399 25.9573 173.271 26C173.185 26.0213 173.111 26.032 173.047 26.032C172.983 26.0533 172.897 26.064 172.791 26.064C172.151 26.064 171.831 25.7653 171.831 25.168Z" fill="black"/>
<path d="M145.064 75.4297C145.439 76.2031 145.662 77.0469 145.732 77.9609C145.814 78.8633 145.75 79.7715 145.539 80.6855C145.562 80.6973 145.58 80.7031 145.592 80.7031C145.604 80.7031 145.621 80.709 145.645 80.7207C145.938 80.7793 146.26 80.8203 146.611 80.8438C146.975 80.8789 147.338 80.8672 147.701 80.8086C148.064 80.7617 148.41 80.6562 148.738 80.4922C149.078 80.3398 149.371 80.0938 149.617 79.7539C149.641 79.6953 149.67 79.6191 149.705 79.5254C149.752 79.4316 149.799 79.3438 149.846 79.2617C149.904 79.1797 149.957 79.1094 150.004 79.0508C150.062 78.9922 150.121 78.9629 150.18 78.9629C150.262 78.9629 150.332 79.0156 150.391 79.1211C150.449 79.2148 150.479 79.3145 150.479 79.4199C150.479 79.8652 150.303 80.2285 149.951 80.5098C149.611 80.791 149.184 81.002 148.668 81.1426C148.164 81.2949 147.613 81.377 147.016 81.3887C146.418 81.4121 145.873 81.3711 145.381 81.2656C145.24 81.7109 145.064 82.1445 144.854 82.5664C144.654 83 144.42 83.416 144.15 83.8145C143.682 84.4824 143.154 85.0684 142.568 85.5723C141.982 86.0879 141.35 86.5332 140.67 86.9082C140.084 87.2363 139.393 87.5527 138.596 87.8574C137.811 88.1738 136.973 88.4434 136.082 88.666C135.203 88.8887 134.301 89.0527 133.375 89.1582C132.449 89.2637 131.564 89.2812 130.721 89.2109C129.877 89.1406 129.104 88.9648 128.4 88.6836C127.697 88.4141 127.117 88.0098 126.66 87.4707C126.309 87.0488 126.057 86.5801 125.904 86.0645C125.752 85.5605 125.688 85.0391 125.711 84.5C125.734 83.9609 125.846 83.4219 126.045 82.8828C126.232 82.3438 126.502 81.8398 126.854 81.3711C127.357 80.668 127.949 80.1055 128.629 79.6836C129.309 79.2617 130.047 78.9395 130.844 78.7168C131.652 78.4941 132.502 78.3652 133.393 78.3301C134.295 78.2832 135.203 78.2891 136.117 78.3477C136.691 78.418 137.395 78.5527 138.227 78.752C139.07 78.9395 139.949 79.1562 140.863 79.4023C141.332 79.5312 141.795 79.6602 142.252 79.7891C142.721 79.918 143.172 80.041 143.605 80.1582C143.945 79.5254 144.215 78.8984 144.414 78.2773C144.613 77.6445 144.713 77.0234 144.713 76.4141C144.713 76.0508 144.654 75.7344 144.537 75.4648C144.525 75.4648 144.52 75.4531 144.52 75.4297C144.391 75.4531 144.262 75.4766 144.133 75.5C144.016 75.5117 143.893 75.5293 143.764 75.5527C143.248 75.623 142.75 75.6699 142.27 75.6934C141.789 75.7051 141.332 75.6816 140.898 75.623C140.465 75.5645 140.072 75.4648 139.721 75.3242C139.369 75.1719 139.07 74.9668 138.824 74.709C138.648 74.5215 138.525 74.3047 138.455 74.0586C138.385 73.8008 138.408 73.502 138.525 73.1621C138.631 73.0215 138.748 72.9102 138.877 72.8281C139.018 72.7461 139.164 72.6875 139.316 72.6523C139.48 72.6172 139.645 72.5938 139.809 72.582C139.973 72.5586 140.143 72.5352 140.318 72.5117C140.506 72.5234 140.717 72.5527 140.951 72.5996C141.186 72.6465 141.42 72.7051 141.654 72.7754C141.889 72.8457 142.111 72.916 142.322 72.9863C142.545 73.0566 142.744 73.127 142.92 73.1973C143.189 73.3379 143.447 73.5195 143.693 73.7422C143.951 73.9531 144.186 74.1875 144.396 74.4453C145.252 74.1172 146.061 73.6602 146.822 73.0742C147.584 72.4883 148.275 71.832 148.896 71.1055C149.529 70.3672 150.086 69.5879 150.566 68.7676C151.047 67.9355 151.434 67.1094 151.727 66.2891C152.055 65.3633 152.266 64.4375 152.359 63.5117C152.453 62.5859 152.412 61.707 152.236 60.875C152.072 60.043 151.768 59.2871 151.322 58.6074C150.889 57.916 150.297 57.3477 149.547 56.9023C149.418 58.0391 149.16 59.1523 148.773 60.2422C148.387 61.3203 147.906 62.3574 147.332 63.3535C146.758 64.3379 146.102 65.2695 145.363 66.1484C144.637 67.0156 143.869 67.8066 143.061 68.5215C142.568 68.9434 142.018 69.3242 141.408 69.6641C140.811 69.9922 140.184 70.2559 139.527 70.4551C138.883 70.6543 138.227 70.7715 137.559 70.8066C136.891 70.8418 136.252 70.7656 135.643 70.5781C134.553 70.2617 133.779 69.7227 133.322 68.9609C132.865 68.1992 132.637 67.2617 132.637 66.1484C132.637 64.9414 132.883 63.8047 133.375 62.7383C133.879 61.6602 134.547 60.6816 135.379 59.8027C136.211 58.9238 137.172 58.1562 138.262 57.5C139.363 56.8438 140.518 56.3281 141.725 55.9531C142.932 55.5781 144.15 55.3613 145.381 55.3027C146.623 55.2441 147.795 55.373 148.896 55.6895C148.896 55.1738 148.844 54.6758 148.738 54.1953C148.633 53.7148 148.451 53.2871 148.193 52.9121C147.947 52.5254 147.613 52.209 147.191 51.9629C146.781 51.7168 146.266 51.5703 145.645 51.5234C145.668 51.4297 145.703 51.3242 145.75 51.207C145.797 51.0781 145.855 51.0195 145.926 51.0312C146.652 51.0898 147.256 51.2656 147.736 51.5586C148.217 51.8516 148.598 52.2266 148.879 52.6836C149.16 53.1289 149.354 53.6328 149.459 54.1953C149.576 54.7578 149.629 55.3379 149.617 55.9355C149.641 55.9473 149.688 55.9648 149.758 55.9883C150.93 56.457 151.908 57.0898 152.693 57.8867C153.479 58.6836 154.076 59.5684 154.486 60.541C154.896 61.502 155.119 62.5215 155.154 63.5996C155.201 64.6777 155.066 65.7324 154.75 66.7637C154.012 69.1426 152.84 71.0352 151.234 72.4414C149.629 73.8477 147.555 74.8145 145.012 75.3418C145.023 75.3652 145.029 75.3828 145.029 75.3945C145.041 75.3945 145.053 75.4062 145.064 75.4297ZM133.322 64.9004C133.146 65.9785 133.176 66.8809 133.41 67.6074C133.645 68.334 134.014 68.9082 134.518 69.3301C135.033 69.7402 135.643 70.0039 136.346 70.1211C137.049 70.2266 137.781 70.2031 138.543 70.0508C139.305 69.8984 140.061 69.623 140.811 69.2246C141.561 68.8145 142.234 68.293 142.832 67.6602C143.652 66.957 144.402 66.1836 145.082 65.3398C145.773 64.4844 146.377 63.5879 146.893 62.6504C147.42 61.7012 147.848 60.7168 148.176 59.6973C148.516 58.666 148.738 57.6113 148.844 56.5332C147.965 56.1582 146.992 55.9648 145.926 55.9531C144.871 55.9414 143.793 56.082 142.691 56.375C141.602 56.6562 140.529 57.0723 139.475 57.623C138.42 58.1738 137.465 58.8242 136.609 59.5742C135.754 60.3125 135.033 61.1387 134.447 62.0527C133.861 62.9551 133.486 63.9043 133.322 64.9004ZM140.775 79.9648C140.283 79.8359 139.785 79.7129 139.281 79.5957C138.789 79.4668 138.309 79.3496 137.84 79.2441C137.371 79.1387 136.926 79.0508 136.504 78.9805C136.094 78.8984 135.725 78.8398 135.396 78.8047C134.74 78.7461 134.066 78.7402 133.375 78.7871C132.695 78.834 132.033 78.9395 131.389 79.1035C130.744 79.2676 130.129 79.4902 129.543 79.7715C128.957 80.0527 128.441 80.4043 127.996 80.8262C127.539 81.248 127.158 81.7402 126.854 82.3027C126.549 82.8652 126.355 83.5039 126.273 84.2188C126.203 84.8164 126.244 85.3555 126.396 85.8359C126.537 86.3281 126.76 86.75 127.064 87.1016C127.568 87.6758 128.148 88.0859 128.805 88.332C129.461 88.5898 130.158 88.7188 130.896 88.7188C131.646 88.7188 132.42 88.6074 133.217 88.3848C134.025 88.1621 134.822 87.8633 135.607 87.4883C136.393 87.1133 137.16 86.668 137.91 86.1523C138.66 85.6484 139.352 85.1152 139.984 84.5527C140.641 83.9551 141.25 83.3281 141.812 82.6719C142.375 82.0273 142.867 81.3594 143.289 80.668C142.902 80.5508 142.498 80.4336 142.076 80.3164C141.654 80.1992 141.221 80.082 140.775 79.9648ZM142.094 73.4258C141.801 73.332 141.496 73.2441 141.18 73.1621C140.875 73.0801 140.57 73.0391 140.266 73.0391C139.762 73.0391 139.416 73.1387 139.229 73.3379C139.053 73.5371 139 73.7539 139.07 73.9883C139.141 74.2227 139.316 74.4395 139.598 74.6387C139.891 74.8262 140.254 74.9141 140.688 74.9023C141.25 74.9844 141.795 75.002 142.322 74.9551C142.861 74.8965 143.389 74.7852 143.904 74.6211C143.658 74.3516 143.383 74.123 143.078 73.9355C142.785 73.748 142.457 73.5781 142.094 73.4258ZM156.596 81.459C158.049 81.5176 158.986 82.0215 159.408 82.9707L159.109 83.1465C158.887 82.7363 158.57 82.4141 158.16 82.1797C157.75 81.957 157.158 81.834 156.385 81.8105L153.203 87.1016C152.758 87.793 152.307 88.3906 151.85 88.8945C151.393 89.4102 150.994 89.791 150.654 90.0371C150.314 90.2949 149.98 90.4941 149.652 90.6348C149.312 90.7871 149.061 90.875 148.896 90.8984C148.732 90.9336 148.586 90.9512 148.457 90.9512C147.895 90.9512 147.613 90.5938 147.613 89.8789C147.613 89.2109 147.83 88.4609 148.264 87.6289C148.697 86.8086 149.248 86.0293 149.916 85.291C150.584 84.5527 151.334 83.8672 152.166 83.2344C152.986 82.6133 153.777 82.1445 154.539 81.8281L157.018 77.8379L157.316 77.2754C155.828 79.0918 154.797 80 154.223 80C153.848 80 153.508 79.7891 153.203 79.3672C152.887 78.9336 152.729 78.3066 152.729 77.4863C152.729 77.123 152.875 76.6016 153.168 75.9219C153.461 75.2305 153.818 74.5215 154.24 73.7949C154.662 73.0684 155.078 72.3711 155.488 71.7031C155.91 71.0352 156.268 70.4844 156.561 70.0508L157.018 69.418H159.232C159.092 69.6172 158.904 69.8867 158.67 70.2266C158.436 70.5664 158.02 71.2051 157.422 72.1426C156.824 73.0684 156.297 73.9297 155.84 74.7266C155.383 75.5117 154.967 76.3203 154.592 77.1523C154.217 77.9727 154.029 78.582 154.029 78.9805C154.029 79.2969 154.152 79.4551 154.398 79.4551C154.926 79.4551 156.355 77.9023 158.688 74.7969L161.729 69.418H163.838L156.596 81.459ZM148.352 90.5117C148.621 90.5117 148.973 90.2832 149.406 89.8262C149.84 89.3809 150.273 88.8301 150.707 88.1738C151.129 87.5293 151.539 86.8848 151.938 86.2402C152.324 85.5957 152.641 85.0508 152.887 84.6055L153.256 83.9199L154.188 82.3906C153.25 82.8594 152.307 83.5566 151.357 84.4824C150.396 85.4082 149.611 86.3809 149.002 87.4004C148.381 88.4199 148.07 89.293 148.07 90.0195C148.07 90.3242 148.164 90.4883 148.352 90.5117ZM173.436 74.6035C173.096 75.0723 172.768 75.5234 172.451 75.957C172.135 76.3789 171.824 76.7773 171.52 77.1523C171.227 77.5156 170.922 77.8672 170.605 78.207C170.289 78.5469 169.984 78.8516 169.691 79.1211C169.398 79.3789 169.123 79.5898 168.865 79.7539C168.619 79.918 168.42 80 168.268 80C168.08 80 167.898 79.9473 167.723 79.8418C167.547 79.7246 167.389 79.5605 167.248 79.3496C167.107 79.1387 166.996 78.8809 166.914 78.5762C166.832 78.2598 166.791 77.8965 166.791 77.4863C166.791 77.2168 166.855 76.8887 166.984 76.502C167.125 76.1035 167.307 75.6758 167.529 75.2188C167.752 74.75 168.004 74.2695 168.285 73.7773C168.566 73.2852 168.848 72.8105 169.129 72.3535C169.422 71.8965 169.697 71.4688 169.955 71.0703C170.213 70.6719 170.436 70.3379 170.623 70.0684L170.658 70.0156C170.236 70.1328 169.844 70.3262 169.48 70.5957C169.129 70.8535 168.795 71.1699 168.479 71.5449C168.162 71.9199 167.863 72.3359 167.582 72.793C167.301 73.25 167.031 73.7246 166.773 74.2168C166.398 74.9551 166.029 75.6699 165.666 76.3613C165.314 77.041 164.951 77.6562 164.576 78.207C164.26 78.7109 163.896 79.1445 163.486 79.5078C163.076 79.8711 162.602 80.0645 162.062 80.0879C161.594 80.0293 161.26 79.877 161.061 79.6309C160.861 79.3848 160.744 79.1094 160.709 78.8047C160.65 78.582 160.65 78.3418 160.709 78.084C160.756 77.8262 160.838 77.5801 160.955 77.3457C161.072 77.1113 161.219 76.9004 161.395 76.7129C161.57 76.5254 161.752 76.3965 161.939 76.3262C162.279 76.2324 162.584 76.2383 162.854 76.3438C163.123 76.4492 163.287 76.6426 163.346 76.9238C163.393 77.2051 163.357 77.4922 163.24 77.7852C163.123 78.0664 162.982 78.3301 162.818 78.5762C162.666 78.8223 162.52 79.0449 162.379 79.2441C162.238 79.4316 162.174 79.5723 162.186 79.666C162.162 79.7246 162.168 79.7363 162.203 79.7012C162.25 79.6543 162.332 79.6426 162.449 79.666C162.719 79.5723 162.982 79.4199 163.24 79.209C163.51 78.9863 163.773 78.6758 164.031 78.2773C164.406 77.6914 164.764 77.0645 165.104 76.3965C165.443 75.7168 165.801 75.043 166.176 74.375C166.516 73.7539 166.855 73.1621 167.195 72.5996C167.547 72.0254 167.916 71.5215 168.303 71.0879C168.689 70.6426 169.105 70.2793 169.551 69.998C169.996 69.7051 170.494 69.5234 171.045 69.4531L171.062 69.418H173.295C173.26 69.4648 173.143 69.6348 172.943 69.9277C172.744 70.209 172.486 70.584 172.17 71.0527C171.865 71.5215 171.514 72.0723 171.115 72.7051C170.729 73.3262 170.324 74 169.902 74.7266C169.68 75.1016 169.457 75.5 169.234 75.9219C169.023 76.3438 168.83 76.7539 168.654 77.1523C168.49 77.5391 168.355 77.8965 168.25 78.2246C168.145 78.541 168.092 78.793 168.092 78.9805C168.092 79.2852 168.215 79.4375 168.461 79.4375C168.602 79.4375 168.818 79.3086 169.111 79.0508C169.416 78.793 169.768 78.4473 170.166 78.0137C170.564 77.5684 170.998 77.0527 171.467 76.4668C171.936 75.8809 172.416 75.2598 172.908 74.6035H173.436ZM172.504 75.7637C173.008 74.498 173.57 73.3555 174.191 72.3359C174.812 71.3047 175.404 70.332 175.967 69.418H178.041C177.994 69.4766 177.777 69.8281 177.391 70.4727C177.004 71.1055 176.453 72.0781 175.738 73.3906C176.219 72.957 176.688 72.6641 177.145 72.5117C177.602 72.3594 178.012 72.3301 178.375 72.4238C178.738 72.5176 179.031 72.7227 179.254 73.0391C179.488 73.3438 179.623 73.7363 179.658 74.2168C179.869 74.1816 180.104 74.123 180.361 74.041C180.619 73.959 180.877 73.8535 181.135 73.7246C181.393 73.5957 181.639 73.4375 181.873 73.25C182.119 73.0625 182.336 72.8516 182.523 72.6172L182.822 72.8984C182.049 73.8477 180.988 74.4395 179.641 74.6738C179.617 74.9082 179.582 75.1484 179.535 75.3945C179.371 76.0742 179.096 76.7012 178.709 77.2754C178.334 77.8496 177.889 78.3477 177.373 78.7695C176.857 79.1797 176.301 79.5078 175.703 79.7539C175.105 79.9883 174.514 80.1055 173.928 80.1055C173.494 80.1523 173.148 80.1055 172.891 79.9648C172.633 79.8242 172.434 79.625 172.293 79.3672C172.152 79.1094 172.07 78.8164 172.047 78.4883C172.012 78.1484 172.012 77.8145 172.047 77.4863C172.082 77.1465 172.146 76.8242 172.24 76.5195C172.322 76.2148 172.41 75.9629 172.504 75.7637ZM174.631 75.5C174.443 75.8633 174.262 76.2969 174.086 76.8008C173.91 77.293 173.781 77.7617 173.699 78.207C173.629 78.6523 173.629 79.0215 173.699 79.3145C173.77 79.6074 173.957 79.7363 174.262 79.7012C174.578 79.666 174.9 79.5137 175.229 79.2441C175.568 78.9629 175.891 78.6172 176.195 78.207C176.512 77.7969 176.799 77.3457 177.057 76.8535C177.326 76.3496 177.549 75.8516 177.725 75.3594C177.818 75.1133 177.906 74.8203 177.988 74.4805C178.082 74.1289 178.129 73.8242 178.129 73.5664C178.117 73.2617 178.023 73.0625 177.848 72.9688C177.672 72.8633 177.443 72.8457 177.162 72.916C176.893 72.9863 176.594 73.1328 176.266 73.3555C175.949 73.5781 175.633 73.8594 175.316 74.1992C175.199 74.3984 175.082 74.6094 174.965 74.832C174.859 75.043 174.748 75.2656 174.631 75.5ZM177.971 90.9512H176.02L183.473 78.8574C183.039 79.2441 182.646 79.5371 182.295 79.7363C181.943 79.9355 181.686 80.0352 181.521 80.0352C180.994 80.0352 180.602 79.7949 180.344 79.3145C180.074 78.834 179.939 78.2363 179.939 77.5215C179.939 76.9355 180.062 76.3203 180.309 75.6758C180.555 75.0312 180.883 74.4043 181.293 73.7949C181.703 73.1738 182.166 72.5879 182.682 72.0371C183.209 71.4746 183.748 70.9883 184.299 70.5781C184.85 70.168 185.395 69.8516 185.934 69.6289C186.484 69.4062 186.977 69.3184 187.41 69.3652C187.609 69.3887 187.762 69.4648 187.867 69.5938C187.984 69.7109 188.061 69.8691 188.096 70.0684C188.143 70.2559 188.154 70.4727 188.131 70.7188C188.119 70.9531 188.09 71.1934 188.043 71.4395L189.836 68.5391C188.676 68.3867 187.92 67.9004 187.568 67.0801L187.867 66.8867C188.055 67.25 188.318 67.543 188.658 67.7656C188.998 67.9883 189.467 68.1289 190.064 68.1875C190.123 68.082 190.463 67.5547 191.084 66.6055C191.705 65.6445 192.602 64.25 193.773 62.4219C194.336 61.543 194.887 60.793 195.426 60.1719C195.977 59.5391 196.475 59.0645 196.92 58.748C197.365 58.4199 197.752 58.1855 198.08 58.0449C198.42 57.8926 198.719 57.8164 198.977 57.8164C199.539 57.8164 199.82 58.1738 199.82 58.8887C199.82 59.6035 199.551 60.459 199.012 61.4551C198.484 62.4629 197.828 63.418 197.043 64.3203C196.645 64.7773 196.229 65.2168 195.795 65.6387C195.373 66.0605 194.922 66.459 194.441 66.834C193.961 67.209 193.504 67.5312 193.07 67.8008C192.648 68.0586 192.238 68.252 191.84 68.3809L190.521 70.543C190.943 70.168 191.324 69.8809 191.664 69.6816C192.016 69.4824 192.273 69.3828 192.438 69.3828C192.965 69.3828 193.357 69.623 193.615 70.1035C193.885 70.584 194.02 71.1816 194.02 71.8965C194.02 72.0957 194.002 72.3008 193.967 72.5117C193.943 72.7109 193.902 72.916 193.844 73.127C194.734 73.0801 195.848 72.5176 197.184 71.4395L197.482 71.8438C196.557 72.5586 195.807 73.0332 195.232 73.2676C194.705 73.4902 194.201 73.6016 193.721 73.6016C193.451 74.4102 193.047 75.2129 192.508 76.0098C191.969 76.8066 191.359 77.5156 190.68 78.1367C190.012 78.7578 189.314 79.25 188.588 79.6133C187.861 79.9766 187.182 80.123 186.549 80.0527C186.35 80.041 186.191 79.9824 186.074 79.877C185.957 79.7598 185.869 79.6133 185.811 79.4375C185.764 79.2617 185.746 79.0625 185.758 78.8398C185.77 78.6172 185.799 78.3828 185.846 78.1367L177.971 90.9512ZM181.521 79.5605C181.697 79.5605 181.92 79.4727 182.189 79.2969C182.459 79.1211 182.746 78.8984 183.051 78.6289C183.355 78.3477 183.66 78.0371 183.965 77.6973C184.281 77.3574 184.562 77.0234 184.809 76.6953L185.6 75.4121L187.357 72.3359C187.428 72.2305 187.498 72.0371 187.568 71.7559C187.65 71.4629 187.709 71.1699 187.744 70.877C187.779 70.5723 187.773 70.3027 187.727 70.0684C187.691 69.834 187.586 69.7168 187.41 69.7168C187.012 69.7168 186.584 69.8984 186.127 70.2617C185.67 70.625 185.219 71.0996 184.773 71.6855C184.328 72.2598 183.895 72.9043 183.473 73.6191C183.062 74.334 182.699 75.043 182.383 75.7461C182.066 76.4492 181.814 77.1113 181.627 77.7324C181.439 78.3418 181.346 78.8281 181.346 79.1914C181.346 79.4375 181.404 79.5605 181.521 79.5605ZM192.438 69.8574C192.25 69.8574 192.021 69.9453 191.752 70.1211C191.482 70.2969 191.195 70.5254 190.891 70.8066C190.586 71.0879 190.275 71.4102 189.959 71.7734C189.643 72.1367 189.35 72.5059 189.08 72.8809L188.025 74.5859L186.602 77.082C186.531 77.1875 186.455 77.3867 186.373 77.6797C186.303 77.9609 186.25 78.2539 186.215 78.5586C186.18 78.8516 186.18 79.1152 186.215 79.3496C186.262 79.584 186.373 79.7012 186.549 79.7012C186.947 79.7012 187.375 79.5195 187.832 79.1562C188.289 78.793 188.74 78.3242 189.186 77.75C189.631 77.1641 190.059 76.5137 190.469 75.7988C190.891 75.084 191.26 74.375 191.576 73.6719C191.893 72.9688 192.145 72.3125 192.332 71.7031C192.52 71.082 192.613 70.5898 192.613 70.2266C192.613 69.9805 192.555 69.8574 192.438 69.8574ZM193.914 64.9004L192.139 67.8887C192.514 67.7246 192.9 67.5078 193.299 67.2383C193.697 66.957 194.119 66.6172 194.564 66.2188C195.01 65.8203 195.426 65.416 195.812 65.0059C196.211 64.584 196.58 64.1504 196.92 63.7051C197.611 62.791 198.191 61.8887 198.66 60.998C199.129 60.0957 199.363 59.3457 199.363 58.748C199.363 58.4316 199.27 58.2676 199.082 58.2559C198.812 58.2559 198.449 58.4844 197.992 58.9414C197.547 59.4102 197.096 59.9668 196.639 60.6113C196.182 61.2559 195.742 61.9062 195.32 62.5625C194.91 63.207 194.57 63.7578 194.301 64.2148L193.914 64.9004ZM204.004 74.6035H204.514C204.42 74.7559 204.291 74.9551 204.127 75.2012C203.975 75.4355 203.676 75.8633 203.23 76.4844C202.785 77.1055 202.352 77.6562 201.93 78.1367C201.52 78.6055 201.068 79.0332 200.576 79.4199C200.084 79.8066 199.662 80 199.311 80C198.947 80 198.607 79.7832 198.291 79.3496C197.986 78.916 197.834 78.2949 197.834 77.4863V77.3984C196.533 79.1328 195.543 80 194.863 80C194.336 80 193.943 79.7598 193.686 79.2793C193.416 78.7988 193.281 78.2012 193.281 77.4863C193.281 76.8184 193.463 76.0918 193.826 75.3066C194.189 74.5098 194.658 73.7715 195.232 73.0918C195.807 72.4004 196.422 71.7676 197.078 71.1934C197.734 70.6191 198.379 70.168 199.012 69.8398C199.656 69.5 200.195 69.3301 200.629 69.3301C201.215 69.3301 201.402 69.8164 201.191 70.7891L202.105 69.418H204.338C204.197 69.6289 204.01 69.9043 203.775 70.2441C203.541 70.584 203.125 71.2227 202.527 72.1602C201.93 73.0859 201.402 73.9414 200.945 74.7266C200.488 75.5117 200.072 76.3203 199.697 77.1523C199.322 77.9727 199.135 78.582 199.135 78.9805C199.135 79.2852 199.258 79.4375 199.504 79.4375C199.715 79.4375 200.002 79.2852 200.365 78.9805C200.74 78.6758 201.098 78.3301 201.438 77.9434C201.777 77.5566 202.146 77.0996 202.545 76.5723C202.955 76.0449 203.254 75.6465 203.441 75.377C203.641 75.1074 203.828 74.8496 204.004 74.6035ZM194.863 79.543C195.438 79.543 196.545 78.4004 198.186 76.1152C198.525 75.2715 199.158 74.082 200.084 72.5469C200.166 72.3711 200.26 72.1426 200.365 71.8613C200.482 71.5684 200.594 71.2578 200.699 70.9297C200.805 70.5898 200.852 70.3027 200.84 70.0684C200.84 69.8223 200.77 69.6992 200.629 69.6992C200.078 69.6992 199.445 70.0801 198.73 70.8418C198.016 71.6035 197.365 72.5 196.779 73.5312C196.193 74.5508 195.695 75.5996 195.285 76.6777C194.875 77.7441 194.67 78.5762 194.67 79.1738C194.67 79.4199 194.734 79.543 194.863 79.543ZM218.014 74.6035H218.541C218.307 74.9785 218.061 75.3477 217.803 75.7109C217.545 76.0742 217.199 76.5312 216.766 77.082C216.332 77.6328 215.922 78.1133 215.535 78.5234C215.16 78.9219 214.756 79.2676 214.322 79.5605C213.9 79.8535 213.525 80 213.197 80C213.092 80 212.975 79.9883 212.846 79.9648C212.729 79.9297 212.594 79.8652 212.441 79.7715C212.289 79.6777 212.154 79.5547 212.037 79.4023C211.92 79.25 211.82 79.0332 211.738 78.752C211.656 78.4707 211.615 78.1426 211.615 77.7676C211.615 77.3809 211.773 76.8945 212.09 76.3086C212.406 75.7227 212.787 75.1367 213.232 74.5508C213.678 73.9531 214.117 73.3789 214.551 72.8281C214.996 72.2656 215.377 71.75 215.693 71.2812C216.01 70.8125 216.168 70.4727 216.168 70.2617C216.168 70.0156 216.074 69.8926 215.887 69.8926C215.629 69.8926 215.277 70.0742 214.832 70.4375C214.387 70.7891 213.93 71.2344 213.461 71.7734C212.992 72.3008 212.471 72.9395 211.896 73.6895C211.322 74.4277 210.807 75.1074 210.35 75.7285C209.904 76.3496 209.447 77 208.979 77.6797C208.381 78.6172 207.877 79.3613 207.467 79.9121H205.568C205.768 79.5605 206.377 78.5996 207.396 77.0293C208.416 75.459 209.289 74.041 210.016 72.7754C210.742 71.498 211.105 70.6602 211.105 70.2617C211.105 70.0156 211.029 69.8926 210.877 69.8926C210.678 69.8926 210.373 70.0684 209.963 70.4199C209.564 70.7598 209.154 71.1641 208.732 71.6328C208.311 72.1016 207.842 72.6641 207.326 73.3203C206.811 73.9648 206.383 74.5098 206.043 74.9551C205.715 75.3887 205.387 75.8281 205.059 76.2734L202.914 79.9121H200.857L202.475 77.4336L203.934 74.6387L207.15 69.418H209.172C209.125 69.5 209.002 69.6934 208.803 69.998C208.615 70.3027 208.398 70.6484 208.152 71.0352C207.918 71.4219 207.754 71.6914 207.66 71.8438C207.285 72.4531 206.998 72.9102 206.799 73.2148C208.732 70.625 210.186 69.3301 211.158 69.3301C211.51 69.3301 211.803 69.4531 212.037 69.6992C212.283 69.9336 212.406 70.3027 212.406 70.8066C212.406 71.3574 212.014 72.3711 211.229 73.8477C213.326 70.8359 214.973 69.3301 216.168 69.3301C216.543 69.3301 216.854 69.4473 217.1 69.6816C217.346 69.916 217.469 70.291 217.469 70.8066C217.469 71.2402 217.305 71.7676 216.977 72.3887C216.66 73.0098 216.273 73.6309 215.816 74.252C215.371 74.873 214.92 75.4824 214.463 76.0801C214.006 76.6777 213.619 77.2402 213.303 77.7676C212.986 78.2832 212.828 78.6875 212.828 78.9805C212.828 79.3555 212.951 79.543 213.197 79.543C213.443 79.543 213.742 79.4199 214.094 79.1738C214.457 78.916 214.809 78.6113 215.148 78.2598C215.488 77.8965 215.852 77.4746 216.238 76.9941C216.637 76.5137 216.965 76.0918 217.223 75.7285C217.492 75.3535 217.756 74.9785 218.014 74.6035ZM237.297 69.998C237.438 69.998 237.584 70.0215 237.736 70.0684C237.9 70.1035 238.029 70.1387 238.123 70.1738L238.264 70.2266L238.105 70.5957C237.941 70.5137 237.725 70.4727 237.455 70.4727C237.244 70.4727 236.998 70.5254 236.717 70.6309C236.447 70.7363 236.113 70.9238 235.715 71.1934C235.316 71.4512 234.859 71.8555 234.344 72.4062C233.828 72.957 233.312 73.625 232.797 74.4102C231.566 76.2617 230.342 77.6621 229.123 78.6113C229.58 79.2324 230.207 79.543 231.004 79.543C231.438 79.543 231.883 79.4375 232.34 79.2266C232.809 79.0039 233.213 78.7402 233.553 78.4355C233.893 78.1309 234.203 77.8262 234.484 77.5215C234.766 77.2051 234.977 76.9355 235.117 76.7129L235.328 76.3965L235.75 76.5547C235.727 76.6133 235.686 76.6836 235.627 76.7656C235.58 76.8359 235.469 76.9941 235.293 77.2402C235.129 77.4746 234.953 77.7031 234.766 77.9258C234.578 78.1367 234.338 78.377 234.045 78.6465C233.752 78.9043 233.453 79.1328 233.148 79.332C232.844 79.5195 232.498 79.6777 232.111 79.8066C231.725 79.9355 231.332 80 230.934 80C230.008 80 229.264 79.6426 228.701 78.9277C227.693 79.6309 226.709 79.9824 225.748 79.9824C225.572 79.9824 225.385 79.9707 225.186 79.9473C224.998 79.9121 224.752 79.8359 224.447 79.7188C224.154 79.5898 223.896 79.4258 223.674 79.2266C223.451 79.0273 223.27 78.7344 223.129 78.3477C222.977 77.9492 222.918 77.4863 222.953 76.959C222.988 76.4082 223.123 75.8926 223.357 75.4121C223.58 74.9316 223.908 74.4512 224.342 73.9707C224.787 73.4902 225.256 73.0449 225.748 72.6348C226.24 72.2246 226.873 71.7383 227.646 71.1758C227.74 71.1172 227.846 71.0469 227.963 70.9648C228.209 69.5586 228.607 68.252 229.158 67.0449C229.709 65.8379 230.354 64.8711 231.092 64.1445C231.842 63.4062 232.592 63.0371 233.342 63.0371C234.033 63.0371 234.561 63.2422 234.924 63.6523C235.299 64.0625 235.469 64.5371 235.434 65.0762C235.398 65.4863 235.27 65.8848 235.047 66.2715C234.824 66.6582 234.549 67.0098 234.221 67.3262C233.904 67.6309 233.5 67.959 233.008 68.3105C232.516 68.6621 232.041 68.9727 231.584 69.2422C231.127 69.5117 230.588 69.8457 229.967 70.2441C229.357 70.6309 228.83 70.9883 228.385 71.3164C228.35 71.6211 228.326 71.8672 228.314 72.0547C228.068 74.9844 228.25 77.0293 228.859 78.1895C230.066 77.2402 231.262 75.8691 232.445 74.0762C232.82 73.5137 233.184 73.0098 233.535 72.5645C233.887 72.1074 234.191 71.7383 234.449 71.457C234.719 71.1758 234.988 70.9355 235.258 70.7363C235.539 70.5371 235.762 70.3906 235.926 70.2969C236.09 70.2031 236.277 70.1328 236.488 70.0859C236.699 70.0391 236.846 70.0156 236.928 70.0156C237.021 70.0039 237.145 69.998 237.297 69.998ZM233.289 63.459C232.75 63.459 232.152 63.793 231.496 64.4609C230.852 65.1289 230.254 66.0195 229.703 67.1328C229.164 68.2344 228.771 69.377 228.525 70.5605C232.252 67.8418 234.156 65.7969 234.238 64.4258C234.262 64.1211 234.186 63.8867 234.01 63.7227C233.846 63.5469 233.605 63.459 233.289 63.459ZM225.73 79.5078C226.586 79.5078 227.488 79.1738 228.438 78.5059C227.629 77.0879 227.436 74.832 227.857 71.7383C227.576 71.9727 227.283 72.2773 226.979 72.6523C226.686 73.0156 226.369 73.4609 226.029 73.9883C225.701 74.5039 225.42 75.1074 225.186 75.7988C224.951 76.4902 224.805 77.1816 224.746 77.873C224.734 78.1543 224.746 78.4121 224.781 78.6465C224.828 78.8691 224.928 79.0684 225.08 79.2441C225.244 79.4199 225.461 79.5078 225.73 79.5078ZM291.297 54.5117C291.473 54.4531 291.561 54.4473 291.561 54.4941C291.572 54.541 291.578 54.6289 291.578 54.7578C291.578 54.8164 291.566 54.8809 291.543 54.9512C291.52 55.0098 291.496 55.0684 291.473 55.127C290.523 55.6777 289.627 56.3457 288.783 57.1309C287.939 57.916 287.113 58.8066 286.305 59.8027C285.496 60.7871 284.693 61.877 283.896 63.0723C283.111 64.2676 282.303 65.5449 281.471 66.9043C280.721 68.1113 279.988 69.3301 279.273 70.5605C278.559 71.7793 277.873 72.9629 277.217 74.1113C276.561 75.248 275.939 76.3203 275.354 77.3281C274.768 78.3359 274.229 79.2266 273.736 80L268.762 80.0352C269.195 79.7422 269.559 79.4609 269.852 79.1914C270.156 78.9219 270.414 78.6699 270.625 78.4355C270.836 78.1895 271.018 77.9668 271.17 77.7676C271.322 77.5684 271.48 77.3867 271.645 77.2227C272.395 76.0977 272.916 74.8613 273.209 73.5137C273.502 72.1543 273.584 70.7891 273.455 69.418C272.928 70.0156 272.418 70.6016 271.926 71.1758C271.434 71.7383 270.965 72.3008 270.52 72.8633C269.336 74.3516 268.176 75.6582 267.039 76.7832C265.902 77.8965 264.777 78.8398 263.664 79.6133C262.562 80.3867 261.467 80.9961 260.377 81.4414C259.287 81.8984 258.191 82.1973 257.09 82.3379C255.977 82.4785 254.857 82.5195 253.732 82.4609C252.607 82.4023 251.523 82.2324 250.48 81.9512C249.438 81.6699 248.453 81.2773 247.527 80.7734C246.613 80.2812 245.805 79.6719 245.102 78.9453C244.398 78.207 243.824 77.3574 243.379 76.3965C242.934 75.4238 242.658 74.334 242.553 73.127C242.482 72.2012 242.559 71.3164 242.781 70.4727C243.004 69.6289 243.338 68.8496 243.783 68.1348C244.24 67.4082 244.779 66.7578 245.4 66.1836C246.033 65.6094 246.725 65.1172 247.475 64.707C248.236 64.2969 249.033 63.9805 249.865 63.7578C250.697 63.5352 251.535 63.418 252.379 63.4062C253.188 63.3125 254.008 63.3125 254.84 63.4062C255.672 63.5 256.469 63.6816 257.23 63.9512C257.453 63.248 257.758 62.6035 258.145 62.0176C258.543 61.4316 259.018 60.9219 259.568 60.4883C260.119 60.0547 260.746 59.7148 261.449 59.4688C262.164 59.2109 262.943 59.0703 263.787 59.0469C265.146 59.0117 266.389 59.2285 267.514 59.6973C268.65 60.166 269.646 60.8164 270.502 61.6484C271.369 62.4688 272.09 63.4297 272.664 64.5312C273.238 65.6211 273.654 66.7754 273.912 67.9941C274.662 67.1973 275.471 66.3535 276.338 65.4629C277.217 64.5723 278.131 63.6816 279.08 62.791C280.041 61.8887 281.031 61.0098 282.051 60.1543C283.07 59.2871 284.096 58.4844 285.127 57.7461C286.17 57.0078 287.207 56.3633 288.238 55.8125C289.281 55.25 290.301 54.8164 291.297 54.5117ZM262.064 69.9629C262.029 70.5957 261.906 71.1934 261.695 71.7559C262.117 71.8262 262.551 71.8613 262.996 71.8613C263.699 71.8613 264.344 71.7324 264.93 71.4746C265.527 71.2168 266.072 70.8652 266.564 70.4199L267.426 69.418H267.76C267.818 69.4766 267.842 69.5469 267.83 69.6289C267.83 69.7109 267.83 69.7988 267.83 69.8926C267.76 69.9746 267.684 70.0625 267.602 70.1562C267.531 70.2383 267.449 70.332 267.355 70.4375C267.273 70.5312 267.18 70.625 267.074 70.7188C266.91 70.8711 266.729 71.0234 266.529 71.1758C266.342 71.3164 266.166 71.4453 266.002 71.5625C265.803 71.7031 265.604 71.8379 265.404 71.9668C264.678 72.248 263.98 72.418 263.312 72.4766C262.656 72.5352 262.029 72.5 261.432 72.3711C261.127 72.9922 260.729 73.5547 260.236 74.0586C259.744 74.5508 259.193 74.9785 258.584 75.3418C257.975 75.7051 257.318 75.9863 256.615 76.1855C255.924 76.373 255.215 76.4668 254.488 76.4668C253.879 76.4551 253.264 76.4023 252.643 76.3086C252.021 76.2148 251.436 76.0684 250.885 75.8691C250.334 75.6699 249.836 75.4062 249.391 75.0781C248.945 74.7383 248.6 74.3164 248.354 73.8125C248.119 73.3203 247.99 72.7988 247.967 72.248C247.955 71.6855 248.037 71.1465 248.213 70.6309C248.389 70.1152 248.652 69.6406 249.004 69.207C249.367 68.7734 249.807 68.4219 250.322 68.1523C250.475 68.1758 250.562 68.2461 250.586 68.3633C250.609 68.4688 250.621 68.5918 250.621 68.7324C250.129 68.9785 249.725 69.2891 249.408 69.6641C249.104 70.0391 248.881 70.4434 248.74 70.877C248.6 71.3105 248.541 71.7617 248.564 72.2305C248.588 72.6875 248.693 73.1152 248.881 73.5137C249.139 74.0176 249.496 74.4219 249.953 74.7266C250.41 75.0195 250.92 75.248 251.482 75.4121C252.045 75.5645 252.637 75.6699 253.258 75.7285C253.879 75.7754 254.477 75.8047 255.051 75.8164C255.66 75.7695 256.252 75.6465 256.826 75.4473C257.4 75.248 257.934 74.9961 258.426 74.6914C258.93 74.375 259.381 74.0059 259.779 73.584C260.178 73.1621 260.512 72.7051 260.781 72.2129C260.266 72.0488 259.791 71.832 259.357 71.5625C258.924 71.2812 258.543 70.9648 258.215 70.6133C257.887 70.25 257.617 69.8574 257.406 69.4355C257.195 69.0137 257.055 68.5801 256.984 68.1348C256.773 66.8105 256.809 65.5742 257.09 64.4258C256.539 64.2266 255.959 64.0801 255.35 63.9863C254.74 63.8809 254.113 63.8281 253.469 63.8281C252.402 63.8281 251.312 63.9688 250.199 64.25C249.086 64.5312 248.037 64.9824 247.053 65.6035C246.49 65.9668 245.969 66.3945 245.488 66.8867C245.008 67.3672 244.598 67.918 244.258 68.5391C243.918 69.1484 243.648 69.8223 243.449 70.5605C243.262 71.2988 243.168 72.1074 243.168 72.9863C243.168 73.7715 243.303 74.4922 243.572 75.1484C243.854 75.793 244.217 76.3789 244.662 76.9062C245.119 77.4336 245.635 77.8965 246.209 78.2949C246.795 78.6934 247.398 79.0332 248.02 79.3145C249.391 79.8301 250.773 80.1406 252.168 80.2461C253.562 80.3633 254.939 80.3105 256.299 80.0879C257.658 79.877 258.988 79.5195 260.289 79.0156C261.602 78.5 262.855 77.8789 264.051 77.1523C265.258 76.4141 266.395 75.582 267.461 74.6562C268.539 73.7305 269.523 72.752 270.414 71.7207C270.766 71.3574 271.188 70.9121 271.68 70.3848C272.184 69.8457 272.74 69.248 273.35 68.5918C273.221 67.8184 273.033 67.0742 272.787 66.3594C272.541 65.6328 272.23 64.9473 271.855 64.3027C271.328 63.4121 270.689 62.6211 269.939 61.9297C269.201 61.2266 268.375 60.6816 267.461 60.2949C266.559 59.8965 265.586 59.6738 264.543 59.627C263.512 59.5801 262.445 59.7617 261.344 60.1719C260.453 60.5 259.709 61.0215 259.111 61.7363C258.514 62.4512 258.068 63.2598 257.775 64.1621C258.385 64.4199 258.947 64.7363 259.463 65.1113C259.99 65.4863 260.447 65.9199 260.834 66.4121C261.221 66.8926 261.52 67.4316 261.73 68.0293C261.953 68.627 262.064 69.2715 262.064 69.9629ZM273.877 73.8125C274.662 72.7109 275.518 71.5566 276.443 70.3496C277.369 69.1426 278.307 67.9414 279.256 66.7461C280.217 65.5391 281.166 64.373 282.104 63.248C283.041 62.123 283.914 61.0977 284.723 60.1719C285.531 59.2344 286.246 58.4258 286.867 57.7461C287.5 57.0664 287.992 56.5742 288.344 56.2695C287.16 56.9961 285.947 57.8398 284.705 58.8008C283.475 59.75 282.25 60.7695 281.031 61.8594C279.812 62.9375 278.611 64.0684 277.428 65.252C276.256 66.4238 275.131 67.5957 274.053 68.7676C274.182 69.6113 274.234 70.4609 274.211 71.3164C274.188 72.1602 274.076 72.9922 273.877 73.8125ZM261.379 69.207C261.273 68.1523 260.881 67.2383 260.201 66.4648C259.533 65.6914 258.678 65.082 257.635 64.6367C257.482 65.2344 257.4 65.8379 257.389 66.4473C257.377 67.0449 257.436 67.625 257.564 68.1875C257.764 69.0898 258.18 69.8281 258.812 70.4023C259.445 70.9766 260.189 71.3809 261.045 71.6152C261.35 70.8418 261.461 70.0391 261.379 69.207ZM287.395 74.6035C286.562 75.8691 285.566 77.0059 284.406 78.0137C283.246 79.0215 282.092 79.8184 280.943 80.4043C281.166 81.0254 281.195 81.7168 281.031 82.4785C280.867 83.2402 280.598 84.002 280.223 84.7637C279.848 85.5371 279.373 86.2871 278.799 87.0137C278.225 87.7402 277.639 88.3848 277.041 88.9473C276.432 89.5098 275.822 89.9551 275.213 90.2832C274.592 90.623 274.059 90.793 273.613 90.793C273.051 90.793 272.77 90.4355 272.77 89.7207C272.77 89.041 273.01 88.2266 273.49 87.2773C273.959 86.3398 274.545 85.4316 275.248 84.5527C275.951 83.6855 276.713 82.877 277.533 82.127C278.354 81.377 279.104 80.8203 279.783 80.457C279.748 79.6367 279.443 79.0859 278.869 78.8047L278.834 78.418C279.525 78.0898 280.264 77.5859 281.049 76.9062C281.846 76.2266 282.555 75.5117 283.176 74.7617C283.797 74.0117 284.318 73.2617 284.74 72.5117C285.162 71.7617 285.373 71.1465 285.373 70.666C285.385 70.4199 285.344 70.209 285.25 70.0332C285.156 69.8457 285.016 69.752 284.828 69.752C284.559 69.752 284.254 69.875 283.914 70.1211C283.586 70.3672 283.205 70.748 282.771 71.2637C282.338 71.7676 281.951 72.2422 281.611 72.6875C281.271 73.1328 280.832 73.7305 280.293 74.4805C280.152 74.6797 280.047 74.8262 279.977 74.9199L279.432 74.9551C280.58 73.291 281.424 72.1367 281.963 71.4922C283.17 70.0508 284.178 69.3301 284.986 69.3301C285.912 69.3301 286.498 69.6465 286.744 70.2793C286.99 70.9121 286.844 71.791 286.305 72.916C285.988 73.584 285.385 74.334 284.494 75.166C283.615 75.998 282.707 76.7305 281.77 77.3633C280.832 77.9844 280.047 78.418 279.414 78.6641C280.035 79.0039 280.486 79.4492 280.768 80C281.811 79.4961 282.877 78.7754 283.967 77.8379C285.068 76.9004 286.029 75.8223 286.85 74.6035H287.395ZM273.49 90.3711C274.018 90.3711 274.645 90.0312 275.371 89.3516C276.086 88.6836 276.766 87.8691 277.41 86.9082C278.043 85.959 278.594 84.9219 279.062 83.7969C279.52 82.6836 279.766 81.7109 279.801 80.8789C278.793 81.5117 277.779 82.3789 276.76 83.4805C275.74 84.5938 274.896 85.7363 274.229 86.9082C273.561 88.0918 273.227 89.082 273.227 89.8789C273.227 90.207 273.314 90.3711 273.49 90.3711ZM296.324 74.6035H296.834C296.74 74.7559 296.611 74.9551 296.447 75.2012C296.295 75.4355 295.996 75.8633 295.551 76.4844C295.105 77.1055 294.672 77.6562 294.25 78.1367C293.84 78.6055 293.389 79.0332 292.896 79.4199C292.404 79.8066 291.982 80 291.631 80C291.268 80 290.928 79.7832 290.611 79.3496C290.307 78.916 290.154 78.2949 290.154 77.4863V77.3984C288.854 79.1328 287.863 80 287.184 80C286.656 80 286.264 79.7598 286.006 79.2793C285.736 78.7988 285.602 78.2012 285.602 77.4863C285.602 76.8184 285.783 76.0918 286.146 75.3066C286.51 74.5098 286.979 73.7715 287.553 73.0918C288.127 72.4004 288.742 71.7676 289.398 71.1934C290.055 70.6191 290.699 70.168 291.332 69.8398C291.977 69.5 292.516 69.3301 292.949 69.3301C293.535 69.3301 293.723 69.8164 293.512 70.7891L294.426 69.418H296.658C296.518 69.6289 296.33 69.9043 296.096 70.2441C295.861 70.584 295.445 71.2227 294.848 72.1602C294.25 73.0859 293.723 73.9414 293.266 74.7266C292.809 75.5117 292.393 76.3203 292.018 77.1523C291.643 77.9727 291.455 78.582 291.455 78.9805C291.455 79.2852 291.578 79.4375 291.824 79.4375C292.035 79.4375 292.322 79.2852 292.686 78.9805C293.061 78.6758 293.418 78.3301 293.758 77.9434C294.098 77.5566 294.467 77.0996 294.865 76.5723C295.275 76.0449 295.574 75.6465 295.762 75.377C295.961 75.1074 296.148 74.8496 296.324 74.6035ZM287.184 79.543C287.758 79.543 288.865 78.4004 290.506 76.1152C290.846 75.2715 291.479 74.082 292.404 72.5469C292.486 72.3711 292.58 72.1426 292.686 71.8613C292.803 71.5684 292.914 71.2578 293.02 70.9297C293.125 70.5898 293.172 70.3027 293.16 70.0684C293.16 69.8223 293.09 69.6992 292.949 69.6992C292.398 69.6992 291.766 70.0801 291.051 70.8418C290.336 71.6035 289.686 72.5 289.1 73.5312C288.514 74.5508 288.016 75.5996 287.605 76.6777C287.195 77.7441 286.99 78.5762 286.99 79.1738C286.99 79.4199 287.055 79.543 287.184 79.543ZM307.346 74.6035C307.006 75.0723 306.678 75.5234 306.361 75.957C306.045 76.3789 305.734 76.7773 305.43 77.1523C305.137 77.5156 304.832 77.8672 304.516 78.207C304.199 78.5469 303.895 78.8516 303.602 79.1211C303.309 79.3789 303.033 79.5898 302.775 79.7539C302.529 79.918 302.33 80 302.178 80C301.99 80 301.809 79.9473 301.633 79.8418C301.457 79.7246 301.299 79.5605 301.158 79.3496C301.018 79.1387 300.906 78.8809 300.824 78.5762C300.742 78.2598 300.701 77.8965 300.701 77.4863C300.701 77.2168 300.766 76.8887 300.895 76.502C301.035 76.1035 301.217 75.6758 301.439 75.2188C301.662 74.75 301.914 74.2695 302.195 73.7773C302.477 73.2852 302.758 72.8105 303.039 72.3535C303.332 71.8965 303.607 71.4688 303.865 71.0703C304.123 70.6719 304.346 70.3379 304.533 70.0684L304.568 70.0156C304.146 70.1328 303.754 70.3262 303.391 70.5957C303.039 70.8535 302.705 71.1699 302.389 71.5449C302.072 71.9199 301.773 72.3359 301.492 72.793C301.211 73.25 300.941 73.7246 300.684 74.2168C300.309 74.9551 299.939 75.6699 299.576 76.3613C299.225 77.041 298.861 77.6562 298.486 78.207C298.17 78.7109 297.807 79.1445 297.396 79.5078C296.986 79.8711 296.512 80.0645 295.973 80.0879C295.504 80.0293 295.17 79.877 294.971 79.6309C294.771 79.3848 294.654 79.1094 294.619 78.8047C294.561 78.582 294.561 78.3418 294.619 78.084C294.666 77.8262 294.748 77.5801 294.865 77.3457C294.982 77.1113 295.129 76.9004 295.305 76.7129C295.48 76.5254 295.662 76.3965 295.85 76.3262C296.189 76.2324 296.494 76.2383 296.764 76.3438C297.033 76.4492 297.197 76.6426 297.256 76.9238C297.303 77.2051 297.268 77.4922 297.15 77.7852C297.033 78.0664 296.893 78.3301 296.729 78.5762C296.576 78.8223 296.43 79.0449 296.289 79.2441C296.148 79.4316 296.084 79.5723 296.096 79.666C296.072 79.7246 296.078 79.7363 296.113 79.7012C296.16 79.6543 296.242 79.6426 296.359 79.666C296.629 79.5723 296.893 79.4199 297.15 79.209C297.42 78.9863 297.684 78.6758 297.941 78.2773C298.316 77.6914 298.674 77.0645 299.014 76.3965C299.354 75.7168 299.711 75.043 300.086 74.375C300.426 73.7539 300.766 73.1621 301.105 72.5996C301.457 72.0254 301.826 71.5215 302.213 71.0879C302.6 70.6426 303.016 70.2793 303.461 69.998C303.906 69.7051 304.404 69.5234 304.955 69.4531L304.973 69.418H307.205C307.17 69.4648 307.053 69.6348 306.854 69.9277C306.654 70.209 306.396 70.584 306.08 71.0527C305.775 71.5215 305.424 72.0723 305.025 72.7051C304.639 73.3262 304.234 74 303.812 74.7266C303.59 75.1016 303.367 75.5 303.145 75.9219C302.934 76.3438 302.74 76.7539 302.564 77.1523C302.4 77.5391 302.266 77.8965 302.16 78.2246C302.055 78.541 302.002 78.793 302.002 78.9805C302.002 79.2852 302.125 79.4375 302.371 79.4375C302.512 79.4375 302.729 79.3086 303.021 79.0508C303.326 78.793 303.678 78.4473 304.076 78.0137C304.475 77.5684 304.908 77.0527 305.377 76.4668C305.846 75.8809 306.326 75.2598 306.818 74.6035H307.346ZM316.891 74.6035H317.418C317.324 74.7559 317.195 74.9551 317.031 75.2012C316.879 75.4355 316.574 75.8633 316.117 76.4844C315.672 77.1055 315.244 77.6562 314.834 78.1367C314.436 78.6055 313.984 79.0332 313.48 79.4199C312.988 79.8066 312.572 80 312.232 80C311.846 80 311.5 79.7832 311.195 79.3496C310.891 78.916 310.738 78.2949 310.738 77.4863C310.738 77.2285 310.809 76.8945 310.949 76.4844C309.133 78.8281 307.891 80 307.223 80C306.848 80 306.508 79.7832 306.203 79.3496C305.898 78.916 305.746 78.2949 305.746 77.4863C305.746 77.123 305.893 76.5957 306.186 75.9043C306.479 75.2129 306.83 74.5098 307.24 73.7949C307.662 73.0684 308.084 72.3711 308.506 71.7031C308.928 71.0352 309.285 70.4902 309.578 70.0684L310.018 69.418H312.25C312.109 69.6289 311.922 69.9043 311.688 70.2441C311.453 70.584 311.037 71.2227 310.439 72.1602C309.842 73.0859 309.314 73.9414 308.857 74.7266C308.4 75.5117 307.984 76.3203 307.609 77.1523C307.234 77.9727 307.047 78.582 307.047 78.9805C307.047 79.2852 307.17 79.4375 307.416 79.4375C307.943 79.4375 309.385 77.873 311.74 74.7441C312.115 74.0176 312.572 73.2148 313.111 72.3359C313.662 71.4453 314.113 70.7363 314.465 70.209L315.01 69.418H317.242C317.102 69.6289 316.908 69.9043 316.662 70.2441C316.428 70.584 316.012 71.2227 315.414 72.1602C314.816 73.0859 314.289 73.9414 313.832 74.7266C313.387 75.5117 312.977 76.3203 312.602 77.1523C312.227 77.9727 312.039 78.582 312.039 78.9805C312.039 79.2852 312.162 79.4375 312.408 79.4375C312.619 79.4375 312.906 79.2852 313.27 78.9805C313.633 78.6758 313.984 78.3301 314.324 77.9434C314.664 77.5566 315.039 77.0996 315.449 76.5723C315.859 76.0449 316.158 75.6465 316.346 75.377C316.545 75.1074 316.727 74.8496 316.891 74.6035ZM328.65 74.6035C328.311 75.0723 327.982 75.5234 327.666 75.957C327.35 76.3789 327.039 76.7773 326.734 77.1523C326.441 77.5156 326.137 77.8672 325.82 78.207C325.504 78.5469 325.199 78.8516 324.906 79.1211C324.613 79.3789 324.338 79.5898 324.08 79.7539C323.834 79.918 323.635 80 323.482 80C323.295 80 323.096 79.9707 322.885 79.9121C322.674 79.8418 322.486 79.7129 322.322 79.5254C322.17 79.3379 322.059 79.0801 321.988 78.752C321.918 78.4238 321.924 78.002 322.006 77.4863C321.994 77.1816 322.076 76.8008 322.252 76.3438C322.439 75.875 322.668 75.3711 322.938 74.832C322.75 74.9023 322.562 74.9551 322.375 74.9902C322.188 75.0137 322 75.0254 321.812 75.0254C321.543 75.4355 321.232 75.9102 320.881 76.4492C320.529 76.9883 320.143 77.5098 319.721 78.0137C319.311 78.5176 318.871 78.9629 318.402 79.3496C317.934 79.7363 317.447 79.9824 316.943 80.0879C316.451 80.0645 316.1 79.9297 315.889 79.6836C315.666 79.4258 315.525 79.127 315.467 78.7871C315.408 78.5527 315.402 78.2949 315.449 78.0137C315.496 77.7324 315.578 77.4629 315.695 77.2051C315.812 76.9355 315.959 76.6953 316.135 76.4844C316.311 76.2734 316.498 76.1211 316.697 76.0273C317.014 75.8984 317.318 75.8867 317.611 75.9922C317.904 76.0859 318.086 76.2852 318.156 76.5898C318.227 76.8828 318.203 77.1875 318.086 77.5039C317.969 77.8086 317.828 78.0957 317.664 78.3652C317.512 78.6348 317.365 78.8809 317.225 79.1035C317.084 79.3145 317.02 79.4668 317.031 79.5605C317.031 79.6191 317.043 79.6309 317.066 79.5957C317.09 79.5488 317.166 79.5312 317.295 79.543C317.623 79.4141 317.975 79.1797 318.35 78.8398C318.725 78.4883 319.088 78.0957 319.439 77.6621C319.803 77.2168 320.148 76.7598 320.477 76.291C320.805 75.8105 321.086 75.377 321.32 74.9902C320.945 74.9316 320.6 74.8086 320.283 74.6211C319.967 74.4219 319.709 74.1758 319.51 73.8828C319.322 73.5781 319.205 73.2324 319.158 72.8457C319.123 72.4473 319.193 72.0137 319.369 71.5449C319.674 70.6777 320.172 70.0332 320.863 69.6113C321.555 69.1895 322.486 69.0137 323.658 69.084C324.033 69.1426 324.391 69.2949 324.73 69.541C325.082 69.7754 325.34 70.1152 325.504 70.5605C325.562 70.4668 325.615 70.3789 325.662 70.2969C325.721 70.2148 325.779 70.1387 325.838 70.0684L326.277 69.418H328.51C328.475 69.4648 328.357 69.6348 328.158 69.9277C327.959 70.209 327.701 70.584 327.385 71.0527C327.08 71.5215 326.729 72.0723 326.33 72.7051C325.943 73.3262 325.539 74 325.117 74.7266C324.895 75.1016 324.672 75.5 324.449 75.9219C324.238 76.3438 324.045 76.7539 323.869 77.1523C323.705 77.5391 323.57 77.8965 323.465 78.2246C323.359 78.541 323.307 78.793 323.307 78.9805C323.307 79.2852 323.43 79.4375 323.676 79.4375C323.816 79.4375 324.033 79.3086 324.326 79.0508C324.631 78.793 324.982 78.4473 325.381 78.0137C325.779 77.5684 326.213 77.0527 326.682 76.4668C327.15 75.8809 327.631 75.2598 328.123 74.6035H328.65ZM322.111 74.5859C322.393 74.6211 322.797 74.4629 323.324 74.1113C323.617 73.584 323.922 73.0684 324.238 72.5645C324.555 72.0488 324.848 71.5742 325.117 71.1406C325 70.6953 324.818 70.3555 324.572 70.1211C324.326 69.875 324.057 69.752 323.764 69.752C323.166 69.7754 322.68 69.9922 322.305 70.4023C321.93 70.8125 321.613 71.2988 321.355 71.8613C321.098 72.4941 320.998 73.0566 321.057 73.5488C321.115 74.0293 321.367 74.3516 321.812 74.5156L322.111 74.5859Z" fill="black" fill-opacity="0.73"/>
</svg>
