<svg width="181" height="36" viewBox="0 0 181 36" fill="none" xmlns="http://www.w3.org/2000/svg">
<path d="M17.3906 21.9375C17.724 22.625 17.9219 23.375 17.9844 24.1875C18.0573 24.9896 18 25.7969 17.8125 26.6094C17.8333 26.6198 17.849 26.625 17.8594 26.625C17.8698 26.625 17.8854 26.6302 17.9062 26.6406C18.1667 26.6927 18.4531 26.7292 18.7656 26.75C19.0885 26.7812 19.4115 26.7708 19.7344 26.7188C20.0573 26.6771 20.3646 26.5833 20.6562 26.4375C20.9583 26.3021 21.2188 26.0833 21.4375 25.7812C21.4583 25.7292 21.4844 25.6615 21.5156 25.5781C21.5573 25.4948 21.599 25.4167 21.6406 25.3438C21.6927 25.2708 21.7396 25.2083 21.7812 25.1562C21.8333 25.1042 21.8854 25.0781 21.9375 25.0781C22.0104 25.0781 22.0729 25.125 22.125 25.2188C22.1771 25.3021 22.2031 25.3906 22.2031 25.4844C22.2031 25.8802 22.0469 26.2031 21.7344 26.4531C21.4323 26.7031 21.0521 26.8906 20.5938 27.0156C20.1458 27.151 19.6562 27.224 19.125 27.2344C18.5938 27.2552 18.1094 27.2188 17.6719 27.125C17.5469 27.5208 17.3906 27.9062 17.2031 28.2812C17.026 28.6667 16.8177 29.0365 16.5781 29.3906C16.1615 29.9844 15.6927 30.5052 15.1719 30.9531C14.651 31.4115 14.0885 31.8073 13.4844 32.1406C12.9635 32.4323 12.349 32.7135 11.6406 32.9844C10.9427 33.2656 10.1979 33.5052 9.40625 33.7031C8.625 33.901 7.82292 34.0469 7 34.1406C6.17708 34.2344 5.39062 34.25 4.64062 34.1875C3.89062 34.125 3.20312 33.9688 2.57812 33.7188C1.95312 33.4792 1.4375 33.1198 1.03125 32.6406C0.71875 32.2656 0.494792 31.849 0.359375 31.3906C0.223958 30.9427 0.166667 30.4792 0.1875 30C0.208333 29.5208 0.307292 29.0417 0.484375 28.5625C0.651042 28.0833 0.890625 27.6354 1.20312 27.2188C1.65104 26.5938 2.17708 26.0938 2.78125 25.7188C3.38542 25.3438 4.04167 25.0573 4.75 24.8594C5.46875 24.6615 6.22396 24.5469 7.01562 24.5156C7.81771 24.474 8.625 24.4792 9.4375 24.5312C9.94792 24.5938 10.5729 24.7135 11.3125 24.8906C12.0625 25.0573 12.8438 25.25 13.6562 25.4688C14.0729 25.5833 14.4844 25.6979 14.8906 25.8125C15.3073 25.9271 15.7083 26.0365 16.0938 26.1406C16.3958 25.5781 16.6354 25.0208 16.8125 24.4688C16.9896 23.9062 17.0781 23.3542 17.0781 22.8125C17.0781 22.4896 17.026 22.2083 16.9219 21.9688C16.9115 21.9688 16.9062 21.9583 16.9062 21.9375C16.7917 21.9583 16.6771 21.9792 16.5625 22C16.4583 22.0104 16.349 22.026 16.2344 22.0469C15.776 22.1094 15.3333 22.151 14.9062 22.1719C14.4792 22.1823 14.0729 22.1615 13.6875 22.1094C13.3021 22.0573 12.9531 21.9688 12.6406 21.8438C12.3281 21.7083 12.0625 21.526 11.8438 21.2969C11.6875 21.1302 11.5781 20.9375 11.5156 20.7188C11.4531 20.4896 11.474 20.224 11.5781 19.9219C11.6719 19.7969 11.776 19.6979 11.8906 19.625C12.0156 19.5521 12.1458 19.5 12.2812 19.4688C12.4271 19.4375 12.5729 19.4167 12.7188 19.4062C12.8646 19.3854 13.0156 19.3646 13.1719 19.3438C13.3385 19.3542 13.526 19.3802 13.7344 19.4219C13.9427 19.4635 14.151 19.5156 14.3594 19.5781C14.5677 19.6406 14.7656 19.7031 14.9531 19.7656C15.151 19.8281 15.3281 19.8906 15.4844 19.9531C15.724 20.0781 15.9531 20.2396 16.1719 20.4375C16.401 20.625 16.6094 20.8333 16.7969 21.0625C17.5573 20.7708 18.276 20.3646 18.9531 19.8438C19.6302 19.3229 20.2448 18.7396 20.7969 18.0938C21.3594 17.4375 21.8542 16.7448 22.2812 16.0156C22.7083 15.276 23.0521 14.5417 23.3125 13.8125C23.6042 12.9896 23.7917 12.1667 23.875 11.3438C23.9583 10.5208 23.9219 9.73958 23.7656 9C23.6198 8.26042 23.349 7.58854 22.9531 6.98438C22.5677 6.36979 22.0417 5.86458 21.375 5.46875C21.2604 6.47917 21.0312 7.46875 20.6875 8.4375C20.3438 9.39583 19.9167 10.3177 19.4062 11.2031C18.8958 12.0781 18.3125 12.9062 17.6562 13.6875C17.0104 14.4583 16.3281 15.1615 15.6094 15.7969C15.1719 16.1719 14.6823 16.5104 14.1406 16.8125C13.6094 17.1042 13.0521 17.3385 12.4688 17.5156C11.8958 17.6927 11.3125 17.7969 10.7188 17.8281C10.125 17.8594 9.55729 17.7917 9.01562 17.625C8.04688 17.3438 7.35938 16.8646 6.95312 16.1875C6.54688 15.5104 6.34375 14.6771 6.34375 13.6875C6.34375 12.6146 6.5625 11.6042 7 10.6562C7.44792 9.69792 8.04167 8.82812 8.78125 8.04688C9.52083 7.26562 10.375 6.58333 11.3438 6C12.3229 5.41667 13.349 4.95833 14.4219 4.625C15.4948 4.29167 16.5781 4.09896 17.6719 4.04688C18.776 3.99479 19.8177 4.10938 20.7969 4.39062C20.7969 3.93229 20.75 3.48958 20.6562 3.0625C20.5625 2.63542 20.401 2.25521 20.1719 1.92188C19.9531 1.57812 19.6562 1.29688 19.2812 1.07812C18.9167 0.859375 18.4583 0.729167 17.9062 0.6875C17.9271 0.604167 17.9583 0.510417 18 0.40625C18.0417 0.291667 18.0938 0.239583 18.1562 0.25C18.8021 0.302083 19.3385 0.458333 19.7656 0.71875C20.1927 0.979167 20.5312 1.3125 20.7812 1.71875C21.0312 2.11458 21.2031 2.5625 21.2969 3.0625C21.401 3.5625 21.4479 4.07812 21.4375 4.60938C21.4583 4.61979 21.5 4.63542 21.5625 4.65625C22.6042 5.07292 23.474 5.63542 24.1719 6.34375C24.8698 7.05208 25.401 7.83854 25.7656 8.70312C26.1302 9.55729 26.3281 10.4635 26.3594 11.4219C26.401 12.3802 26.2812 13.3177 26 14.2344C25.3438 16.349 24.3021 18.0312 22.875 19.2812C21.4479 20.5312 19.6042 21.3906 17.3438 21.8594C17.3542 21.8802 17.3594 21.8958 17.3594 21.9062C17.3698 21.9062 17.3802 21.9167 17.3906 21.9375ZM6.95312 12.5781C6.79688 13.5365 6.82292 14.3385 7.03125 14.9844C7.23958 15.6302 7.56771 16.1406 8.01562 16.5156C8.47396 16.8802 9.01562 17.1146 9.64062 17.2188C10.2656 17.3125 10.9167 17.2917 11.5938 17.1562C12.2708 17.0208 12.9427 16.776 13.6094 16.4219C14.276 16.0573 14.875 15.5938 15.4062 15.0312C16.1354 14.4062 16.8021 13.7188 17.4062 12.9688C18.0208 12.2083 18.5573 11.4115 19.0156 10.5781C19.4844 9.73438 19.8646 8.85938 20.1562 7.95312C20.4583 7.03646 20.6562 6.09896 20.75 5.14062C19.9688 4.80729 19.1042 4.63542 18.1562 4.625C17.2188 4.61458 16.2604 4.73958 15.2812 5C14.3125 5.25 13.3594 5.61979 12.4219 6.10938C11.4844 6.59896 10.6354 7.17708 9.875 7.84375C9.11458 8.5 8.47396 9.23438 7.95312 10.0469C7.43229 10.849 7.09896 11.6927 6.95312 12.5781ZM13.5781 25.9688C13.1406 25.8542 12.6979 25.7448 12.25 25.6406C11.8125 25.526 11.3854 25.4219 10.9688 25.3281C10.5521 25.2344 10.1562 25.1562 9.78125 25.0938C9.41667 25.0208 9.08854 24.9688 8.79688 24.9375C8.21354 24.8854 7.61458 24.8802 7 24.9219C6.39583 24.9635 5.80729 25.0573 5.23438 25.2031C4.66146 25.349 4.11458 25.5469 3.59375 25.7969C3.07292 26.0469 2.61458 26.3594 2.21875 26.7344C1.8125 27.1094 1.47396 27.5469 1.20312 28.0469C0.932292 28.5469 0.760417 29.1146 0.6875 29.75C0.625 30.2812 0.661458 30.7604 0.796875 31.1875C0.921875 31.625 1.11979 32 1.39062 32.3125C1.83854 32.8229 2.35417 33.1875 2.9375 33.4062C3.52083 33.6354 4.14062 33.75 4.79688 33.75C5.46354 33.75 6.15104 33.651 6.85938 33.4531C7.57812 33.2552 8.28646 32.9896 8.98438 32.6562C9.68229 32.3229 10.3646 31.9271 11.0312 31.4688C11.6979 31.0208 12.3125 30.5469 12.875 30.0469C13.4583 29.5156 14 28.9583 14.5 28.375C15 27.8021 15.4375 27.2083 15.8125 26.5938C15.4688 26.4896 15.1094 26.3854 14.7344 26.2812C14.3594 26.1771 13.974 26.0729 13.5781 25.9688ZM14.75 20.1562C14.4896 20.0729 14.2188 19.9948 13.9375 19.9219C13.6667 19.849 13.3958 19.8125 13.125 19.8125C12.6771 19.8125 12.3698 19.901 12.2031 20.0781C12.0469 20.2552 12 20.4479 12.0625 20.6562C12.125 20.8646 12.2812 21.0573 12.5312 21.2344C12.7917 21.401 13.1146 21.4792 13.5 21.4688C14 21.5417 14.4844 21.5573 14.9531 21.5156C15.4323 21.4635 15.901 21.3646 16.3594 21.2188C16.1406 20.9792 15.8958 20.776 15.625 20.6094C15.3646 20.4427 15.0729 20.2917 14.75 20.1562ZM27.6406 27.2969C28.9323 27.349 29.7656 27.7969 30.1406 28.6406L29.875 28.7969C29.6771 28.4323 29.3958 28.1458 29.0312 27.9375C28.6667 27.7396 28.1406 27.6302 27.4531 27.6094L24.625 32.3125C24.2292 32.9271 23.8281 33.4583 23.4219 33.9062C23.0156 34.3646 22.6615 34.7031 22.3594 34.9219C22.0573 35.151 21.7604 35.3281 21.4688 35.4531C21.1667 35.5885 20.9427 35.6667 20.7969 35.6875C20.651 35.7188 20.5208 35.7344 20.4062 35.7344C19.9062 35.7344 19.6562 35.4167 19.6562 34.7812C19.6562 34.1875 19.849 33.5208 20.2344 32.7812C20.6198 32.0521 21.1094 31.3594 21.7031 30.7031C22.2969 30.0469 22.9635 29.4375 23.7031 28.875C24.4323 28.3229 25.1354 27.9062 25.8125 27.625L28.0156 24.0781L28.2812 23.5781C26.9583 25.1927 26.0417 26 25.5312 26C25.1979 26 24.8958 25.8125 24.625 25.4375C24.3438 25.0521 24.2031 24.4948 24.2031 23.7656C24.2031 23.4427 24.3333 22.9792 24.5938 22.375C24.8542 21.7604 25.1719 21.1302 25.5469 20.4844C25.9219 19.8385 26.2917 19.2188 26.6562 18.625C27.0312 18.0312 27.349 17.5417 27.6094 17.1562L28.0156 16.5938H29.9844C29.8594 16.7708 29.6927 17.0104 29.4844 17.3125C29.276 17.6146 28.9062 18.1823 28.375 19.0156C27.8438 19.8385 27.375 20.6042 26.9688 21.3125C26.5625 22.0104 26.1927 22.7292 25.8594 23.4688C25.526 24.1979 25.3594 24.7396 25.3594 25.0938C25.3594 25.375 25.4688 25.5156 25.6875 25.5156C26.1562 25.5156 27.4271 24.1354 29.5 21.375L32.2031 16.5938H34.0781L27.6406 27.2969ZM20.3125 35.3438C20.5521 35.3438 20.8646 35.1406 21.25 34.7344C21.6354 34.3385 22.0208 33.849 22.4062 33.2656C22.7812 32.6927 23.1458 32.1198 23.5 31.5469C23.8438 30.974 24.125 30.4896 24.3438 30.0938L24.6719 29.4844L25.5 28.125C24.6667 28.5417 23.8281 29.1615 22.9844 29.9844C22.1302 30.8073 21.4323 31.6719 20.8906 32.5781C20.3385 33.4844 20.0625 34.2604 20.0625 34.9062C20.0625 35.1771 20.1458 35.3229 20.3125 35.3438ZM42.6094 21.2031C42.3073 21.6198 42.0156 22.0208 41.7344 22.4062C41.4531 22.7812 41.1771 23.1354 40.9062 23.4688C40.6458 23.7917 40.375 24.1042 40.0938 24.4062C39.8125 24.7083 39.5417 24.9792 39.2812 25.2188C39.0208 25.4479 38.776 25.6354 38.5469 25.7812C38.3281 25.9271 38.151 26 38.0156 26C37.849 26 37.6875 25.9531 37.5312 25.8594C37.375 25.7552 37.2344 25.6094 37.1094 25.4219C36.9844 25.2344 36.8854 25.0052 36.8125 24.7344C36.7396 24.4531 36.7031 24.1302 36.7031 23.7656C36.7031 23.526 36.7604 23.2344 36.875 22.8906C37 22.5365 37.1615 22.1562 37.3594 21.75C37.5573 21.3333 37.7812 20.9062 38.0312 20.4688C38.2812 20.0312 38.5312 19.6094 38.7812 19.2031C39.0417 18.7969 39.2865 18.4167 39.5156 18.0625C39.7448 17.7083 39.9427 17.4115 40.1094 17.1719L40.1406 17.125C39.7656 17.2292 39.4167 17.401 39.0938 17.6406C38.7812 17.8698 38.4844 18.151 38.2031 18.4844C37.9219 18.8177 37.6562 19.1875 37.4062 19.5938C37.1562 20 36.9167 20.4219 36.6875 20.8594C36.3542 21.5156 36.026 22.151 35.7031 22.7656C35.3906 23.3698 35.0677 23.9167 34.7344 24.4062C34.4531 24.8542 34.1302 25.2396 33.7656 25.5625C33.401 25.8854 32.9792 26.0573 32.5 26.0781C32.0833 26.026 31.7865 25.8906 31.6094 25.6719C31.4323 25.4531 31.3281 25.2083 31.2969 24.9375C31.2448 24.7396 31.2448 24.526 31.2969 24.2969C31.3385 24.0677 31.4115 23.849 31.5156 23.6406C31.6198 23.4323 31.75 23.2448 31.9062 23.0781C32.0625 22.9115 32.224 22.7969 32.3906 22.7344C32.6927 22.651 32.9635 22.6562 33.2031 22.75C33.4427 22.8438 33.5885 23.0156 33.6406 23.2656C33.6823 23.5156 33.651 23.7708 33.5469 24.0312C33.4427 24.2812 33.3177 24.5156 33.1719 24.7344C33.0365 24.9531 32.9062 25.151 32.7812 25.3281C32.6562 25.4948 32.599 25.6198 32.6094 25.7031C32.5885 25.7552 32.5938 25.7656 32.625 25.7344C32.6667 25.6927 32.7396 25.6823 32.8438 25.7031C33.0833 25.6198 33.3177 25.4844 33.5469 25.2969C33.7865 25.099 34.0208 24.8229 34.25 24.4688C34.5833 23.9479 34.901 23.3906 35.2031 22.7969C35.5052 22.1927 35.8229 21.5938 36.1562 21C36.4583 20.4479 36.7604 19.9219 37.0625 19.4219C37.375 18.9115 37.7031 18.4635 38.0469 18.0781C38.3906 17.6823 38.7604 17.3594 39.1562 17.1094C39.5521 16.849 39.9948 16.6875 40.4844 16.625L40.5 16.5938H42.4844C42.4531 16.6354 42.349 16.7865 42.1719 17.0469C41.9948 17.2969 41.7656 17.6302 41.4844 18.0469C41.2135 18.4635 40.901 18.9531 40.5469 19.5156C40.2031 20.0677 39.8438 20.6667 39.4688 21.3125C39.2708 21.6458 39.0729 22 38.875 22.375C38.6875 22.75 38.5156 23.1146 38.3594 23.4688C38.2135 23.8125 38.0938 24.1302 38 24.4219C37.9062 24.7031 37.8594 24.9271 37.8594 25.0938C37.8594 25.3646 37.9688 25.5 38.1875 25.5C38.3125 25.5 38.5052 25.3854 38.7656 25.1562C39.0365 24.9271 39.349 24.6198 39.7031 24.2344C40.0573 23.8385 40.4427 23.3802 40.8594 22.8594C41.276 22.3385 41.7031 21.7865 42.1406 21.2031H42.6094ZM41.7812 22.2344C42.2292 21.1094 42.7292 20.0938 43.2812 19.1875C43.8333 18.2708 44.3594 17.4062 44.8594 16.5938H46.7031C46.6615 16.6458 46.4688 16.9583 46.125 17.5312C45.7812 18.0938 45.2917 18.9583 44.6562 20.125C45.0833 19.7396 45.5 19.4792 45.9062 19.3438C46.3125 19.2083 46.6771 19.1823 47 19.2656C47.3229 19.349 47.5833 19.5312 47.7812 19.8125C47.9896 20.0833 48.1094 20.4323 48.1406 20.8594C48.3281 20.8281 48.5365 20.776 48.7656 20.7031C48.9948 20.6302 49.224 20.5365 49.4531 20.4219C49.6823 20.3073 49.901 20.1667 50.1094 20C50.3281 19.8333 50.5208 19.6458 50.6875 19.4375L50.9531 19.6875C50.2656 20.5312 49.3229 21.0573 48.125 21.2656C48.1042 21.474 48.0729 21.6875 48.0312 21.9062C47.8854 22.5104 47.6406 23.0677 47.2969 23.5781C46.9635 24.0885 46.5677 24.5312 46.1094 24.9062C45.651 25.2708 45.1562 25.5625 44.625 25.7812C44.0938 25.9896 43.5677 26.0938 43.0469 26.0938C42.6615 26.1354 42.3542 26.0938 42.125 25.9688C41.8958 25.8438 41.7188 25.6667 41.5938 25.4375C41.4688 25.2083 41.3958 24.9479 41.375 24.6562C41.3438 24.3542 41.3438 24.0573 41.375 23.7656C41.4062 23.4635 41.4635 23.1771 41.5469 22.9062C41.6198 22.6354 41.6979 22.4115 41.7812 22.2344ZM43.6719 22C43.5052 22.3229 43.3438 22.7083 43.1875 23.1562C43.0312 23.5938 42.9167 24.0104 42.8438 24.4062C42.7812 24.8021 42.7812 25.1302 42.8438 25.3906C42.9062 25.651 43.0729 25.7656 43.3438 25.7344C43.625 25.7031 43.9115 25.5677 44.2031 25.3281C44.5052 25.0781 44.7917 24.7708 45.0625 24.4062C45.3438 24.0417 45.599 23.6406 45.8281 23.2031C46.0677 22.7552 46.2656 22.3125 46.4219 21.875C46.5052 21.6562 46.5833 21.3958 46.6562 21.0938C46.7396 20.7812 46.7812 20.5104 46.7812 20.2812C46.7708 20.0104 46.6875 19.8333 46.5312 19.75C46.375 19.6562 46.1719 19.6406 45.9219 19.7031C45.6823 19.7656 45.4167 19.8958 45.125 20.0938C44.8438 20.2917 44.5625 20.5417 44.2812 20.8438C44.1771 21.0208 44.0729 21.2083 43.9688 21.4062C43.875 21.5938 43.776 21.7917 43.6719 22ZM46.6406 35.7344H44.9062L51.5312 24.9844C51.1458 25.3281 50.7969 25.5885 50.4844 25.7656C50.1719 25.9427 49.9427 26.0312 49.7969 26.0312C49.3281 26.0312 48.9792 25.8177 48.75 25.3906C48.5104 24.9635 48.3906 24.4323 48.3906 23.7969C48.3906 23.276 48.5 22.7292 48.7188 22.1562C48.9375 21.5833 49.2292 21.026 49.5938 20.4844C49.9583 19.9323 50.3698 19.4115 50.8281 18.9219C51.2969 18.4219 51.776 17.9896 52.2656 17.625C52.7552 17.2604 53.2396 16.9792 53.7188 16.7812C54.2083 16.5833 54.6458 16.5052 55.0312 16.5469C55.2083 16.5677 55.3438 16.6354 55.4375 16.75C55.5417 16.8542 55.6094 16.9948 55.6406 17.1719C55.6823 17.3385 55.6927 17.5312 55.6719 17.75C55.6615 17.9583 55.6354 18.1719 55.5938 18.3906L57.1875 15.8125C56.1562 15.6771 55.4844 15.2448 55.1719 14.5156L55.4375 14.3438C55.6042 14.6667 55.8385 14.9271 56.1406 15.125C56.4427 15.3229 56.8594 15.4479 57.3906 15.5C57.4427 15.4062 57.7448 14.9375 58.2969 14.0938C58.849 13.2396 59.6458 12 60.6875 10.375C61.1875 9.59375 61.6771 8.92708 62.1562 8.375C62.6458 7.8125 63.0885 7.39062 63.4844 7.10938C63.8802 6.81771 64.224 6.60938 64.5156 6.48438C64.8177 6.34896 65.0833 6.28125 65.3125 6.28125C65.8125 6.28125 66.0625 6.59896 66.0625 7.23438C66.0625 7.86979 65.8229 8.63021 65.3438 9.51562C64.875 10.4115 64.2917 11.2604 63.5938 12.0625C63.2396 12.4688 62.8698 12.8594 62.4844 13.2344C62.1094 13.6094 61.7083 13.9635 61.2812 14.2969C60.8542 14.6302 60.4479 14.9167 60.0625 15.1562C59.6875 15.3854 59.3229 15.5573 58.9688 15.6719L57.7969 17.5938C58.1719 17.2604 58.5104 17.0052 58.8125 16.8281C59.125 16.651 59.3542 16.5625 59.5 16.5625C59.9688 16.5625 60.3177 16.776 60.5469 17.2031C60.7865 17.6302 60.9062 18.1615 60.9062 18.7969C60.9062 18.974 60.8906 19.1562 60.8594 19.3438C60.8385 19.5208 60.8021 19.7031 60.75 19.8906C61.5417 19.849 62.5312 19.349 63.7188 18.3906L63.9844 18.75C63.1615 19.3854 62.4948 19.8073 61.9844 20.0156C61.5156 20.2135 61.0677 20.3125 60.6406 20.3125C60.401 21.0312 60.0417 21.7448 59.5625 22.4531C59.0833 23.1615 58.5417 23.7917 57.9375 24.3438C57.3438 24.8958 56.724 25.3333 56.0781 25.6562C55.4323 25.9792 54.8281 26.1094 54.2656 26.0469C54.0885 26.0365 53.9479 25.9844 53.8438 25.8906C53.7396 25.7865 53.6615 25.6562 53.6094 25.5C53.5677 25.3438 53.5521 25.1667 53.5625 24.9688C53.5729 24.7708 53.599 24.5625 53.6406 24.3438L46.6406 35.7344ZM49.7969 25.6094C49.9531 25.6094 50.151 25.5312 50.3906 25.375C50.6302 25.2188 50.8854 25.0208 51.1562 24.7812C51.4271 24.5312 51.6979 24.2552 51.9688 23.9531C52.25 23.651 52.5 23.3542 52.7188 23.0625L53.4219 21.9219L54.9844 19.1875C55.0469 19.0938 55.1094 18.9219 55.1719 18.6719C55.2448 18.4115 55.2969 18.151 55.3281 17.8906C55.3594 17.6198 55.3542 17.3802 55.3125 17.1719C55.2812 16.9635 55.1875 16.8594 55.0312 16.8594C54.6771 16.8594 54.2969 17.0208 53.8906 17.3438C53.4844 17.6667 53.0833 18.0885 52.6875 18.6094C52.2917 19.1198 51.9062 19.6927 51.5312 20.3281C51.1667 20.9635 50.8438 21.5938 50.5625 22.2188C50.2812 22.8438 50.0573 23.4323 49.8906 23.9844C49.724 24.526 49.6406 24.9583 49.6406 25.2812C49.6406 25.5 49.6927 25.6094 49.7969 25.6094ZM59.5 16.9844C59.3333 16.9844 59.1302 17.0625 58.8906 17.2188C58.651 17.375 58.3958 17.5781 58.125 17.8281C57.8542 18.0781 57.5781 18.3646 57.2969 18.6875C57.0156 19.0104 56.7552 19.3385 56.5156 19.6719L55.5781 21.1875L54.3125 23.4062C54.25 23.5 54.1823 23.6771 54.1094 23.9375C54.0469 24.1875 54 24.4479 53.9688 24.7188C53.9375 24.9792 53.9375 25.2135 53.9688 25.4219C54.0104 25.6302 54.1094 25.7344 54.2656 25.7344C54.6198 25.7344 55 25.5729 55.4062 25.25C55.8125 24.9271 56.2135 24.5104 56.6094 24C57.0052 23.4792 57.3854 22.901 57.75 22.2656C58.125 21.6302 58.4531 21 58.7344 20.375C59.0156 19.75 59.2396 19.1667 59.4062 18.625C59.5729 18.0729 59.6562 17.6354 59.6562 17.3125C59.6562 17.0938 59.6042 16.9844 59.5 16.9844ZM60.8125 12.5781L59.2344 15.2344C59.5677 15.0885 59.9115 14.8958 60.2656 14.6562C60.6198 14.4062 60.9948 14.1042 61.3906 13.75C61.7865 13.3958 62.1562 13.0365 62.5 12.6719C62.8542 12.2969 63.1823 11.9115 63.4844 11.5156C64.099 10.7031 64.6146 9.90104 65.0312 9.10938C65.4479 8.30729 65.6562 7.64062 65.6562 7.10938C65.6562 6.82812 65.5729 6.68229 65.4062 6.67188C65.1667 6.67188 64.8438 6.875 64.4375 7.28125C64.0417 7.69792 63.6406 8.19271 63.2344 8.76562C62.8281 9.33854 62.4375 9.91667 62.0625 10.5C61.6979 11.0729 61.3958 11.5625 61.1562 11.9688L60.8125 12.5781ZM69.7812 21.2031H70.2344C70.151 21.3385 70.0365 21.5156 69.8906 21.7344C69.7552 21.9427 69.4896 22.3229 69.0938 22.875C68.6979 23.4271 68.3125 23.9167 67.9375 24.3438C67.5729 24.7604 67.1719 25.1406 66.7344 25.4844C66.2969 25.8281 65.9219 26 65.6094 26C65.2865 26 64.9844 25.8073 64.7031 25.4219C64.4323 25.0365 64.2969 24.4844 64.2969 23.7656V23.6875C63.1406 25.2292 62.2604 26 61.6562 26C61.1875 26 60.8385 25.7865 60.6094 25.3594C60.3698 24.9323 60.25 24.401 60.25 23.7656C60.25 23.1719 60.4115 22.526 60.7344 21.8281C61.0573 21.1198 61.474 20.4635 61.9844 19.8594C62.4948 19.2448 63.0417 18.6823 63.625 18.1719C64.2083 17.6615 64.7812 17.2604 65.3438 16.9688C65.9167 16.6667 66.3958 16.5156 66.7812 16.5156C67.3021 16.5156 67.4688 16.9479 67.2812 17.8125L68.0938 16.5938H70.0781C69.9531 16.7812 69.7865 17.026 69.5781 17.3281C69.3698 17.6302 69 18.1979 68.4688 19.0312C67.9375 19.8542 67.4688 20.6146 67.0625 21.3125C66.6562 22.0104 66.2865 22.7292 65.9531 23.4688C65.6198 24.1979 65.4531 24.7396 65.4531 25.0938C65.4531 25.3646 65.5625 25.5 65.7812 25.5C65.9688 25.5 66.224 25.3646 66.5469 25.0938C66.8802 24.8229 67.1979 24.5156 67.5 24.1719C67.8021 23.8281 68.1302 23.4219 68.4844 22.9531C68.849 22.4844 69.1146 22.1302 69.2812 21.8906C69.4583 21.651 69.625 21.4219 69.7812 21.2031ZM61.6562 25.5938C62.1667 25.5938 63.151 24.5781 64.6094 22.5469C64.9115 21.7969 65.474 20.7396 66.2969 19.375C66.3698 19.2188 66.4531 19.0156 66.5469 18.7656C66.651 18.5052 66.75 18.2292 66.8438 17.9375C66.9375 17.6354 66.9792 17.3802 66.9688 17.1719C66.9688 16.9531 66.9062 16.8438 66.7812 16.8438C66.2917 16.8438 65.7292 17.1823 65.0938 17.8594C64.4583 18.5365 63.8802 19.3333 63.3594 20.25C62.8385 21.1562 62.3958 22.0885 62.0312 23.0469C61.6667 23.9948 61.4844 24.7344 61.4844 25.2656C61.4844 25.4844 61.5417 25.5938 61.6562 25.5938ZM82.2344 21.2031H82.7031C82.4948 21.5365 82.276 21.8646 82.0469 22.1875C81.8177 22.5104 81.5104 22.9167 81.125 23.4062C80.7396 23.8958 80.375 24.3229 80.0312 24.6875C79.6979 25.0417 79.3385 25.349 78.9531 25.6094C78.5781 25.8698 78.2448 26 77.9531 26C77.8594 26 77.7552 25.9896 77.6406 25.9688C77.5365 25.9375 77.4167 25.8802 77.2812 25.7969C77.1458 25.7135 77.026 25.6042 76.9219 25.4688C76.8177 25.3333 76.7292 25.1406 76.6562 24.8906C76.5833 24.6406 76.5469 24.349 76.5469 24.0156C76.5469 23.6719 76.6875 23.2396 76.9688 22.7188C77.25 22.1979 77.5885 21.6771 77.9844 21.1562C78.3802 20.625 78.7708 20.1146 79.1562 19.625C79.5521 19.125 79.8906 18.6667 80.1719 18.25C80.4531 17.8333 80.5938 17.5312 80.5938 17.3438C80.5938 17.125 80.5104 17.0156 80.3438 17.0156C80.1146 17.0156 79.8021 17.1771 79.4062 17.5C79.0104 17.8125 78.6042 18.2083 78.1875 18.6875C77.7708 19.1562 77.3073 19.724 76.7969 20.3906C76.2865 21.0469 75.8281 21.651 75.4219 22.2031C75.026 22.7552 74.6198 23.3333 74.2031 23.9375C73.6719 24.7708 73.224 25.4323 72.8594 25.9219H71.1719C71.349 25.6094 71.8906 24.7552 72.7969 23.3594C73.7031 21.9635 74.4792 20.7031 75.125 19.5781C75.7708 18.4427 76.0938 17.6979 76.0938 17.3438C76.0938 17.125 76.026 17.0156 75.8906 17.0156C75.7135 17.0156 75.4427 17.1719 75.0781 17.4844C74.724 17.7865 74.3594 18.1458 73.9844 18.5625C73.6094 18.9792 73.1927 19.4792 72.7344 20.0625C72.276 20.6354 71.8958 21.1198 71.5938 21.5156C71.3021 21.901 71.0104 22.2917 70.7188 22.6875L68.8125 25.9219H66.9844L68.4219 23.7188L69.7188 21.2344L72.5781 16.5938H74.375C74.3333 16.6667 74.224 16.8385 74.0469 17.1094C73.8802 17.3802 73.6875 17.6875 73.4688 18.0312C73.2604 18.375 73.1146 18.6146 73.0312 18.75C72.6979 19.2917 72.4427 19.6979 72.2656 19.9688C73.9844 17.6667 75.276 16.5156 76.1406 16.5156C76.4531 16.5156 76.7135 16.625 76.9219 16.8438C77.1406 17.0521 77.25 17.3802 77.25 17.8281C77.25 18.3177 76.901 19.2188 76.2031 20.5312C78.0677 17.8542 79.5312 16.5156 80.5938 16.5156C80.9271 16.5156 81.2031 16.6198 81.4219 16.8281C81.6406 17.0365 81.75 17.3698 81.75 17.8281C81.75 18.2135 81.6042 18.6823 81.3125 19.2344C81.0312 19.7865 80.6875 20.3385 80.2812 20.8906C79.8854 21.4427 79.4844 21.9844 79.0781 22.5156C78.6719 23.0469 78.3281 23.5469 78.0469 24.0156C77.7656 24.474 77.625 24.8333 77.625 25.0938C77.625 25.4271 77.7344 25.5938 77.9531 25.5938C78.1719 25.5938 78.4375 25.4844 78.75 25.2656C79.0729 25.0365 79.3854 24.7656 79.6875 24.4531C79.9896 24.1302 80.3125 23.7552 80.6562 23.3281C81.0104 22.901 81.3021 22.526 81.5312 22.2031C81.7708 21.8698 82.0052 21.5365 82.2344 21.2031ZM99.375 17.1094C99.5 17.1094 99.6302 17.1302 99.7656 17.1719C99.9115 17.2031 100.026 17.2344 100.109 17.2656L100.234 17.3125L100.094 17.6406C99.9479 17.5677 99.7552 17.5312 99.5156 17.5312C99.3281 17.5312 99.1094 17.5781 98.8594 17.6719C98.6198 17.7656 98.3229 17.9323 97.9688 18.1719C97.6146 18.401 97.2083 18.7604 96.75 19.25C96.2917 19.7396 95.8333 20.3333 95.375 21.0312C94.2812 22.6771 93.1927 23.9219 92.1094 24.7656C92.5156 25.3177 93.0729 25.5938 93.7812 25.5938C94.1667 25.5938 94.5625 25.5 94.9688 25.3125C95.3854 25.1146 95.7448 24.8802 96.0469 24.6094C96.349 24.3385 96.625 24.0677 96.875 23.7969C97.125 23.5156 97.3125 23.276 97.4375 23.0781L97.625 22.7969L98 22.9375C97.9792 22.9896 97.9427 23.0521 97.8906 23.125C97.849 23.1875 97.75 23.3281 97.5938 23.5469C97.4479 23.7552 97.2917 23.9583 97.125 24.1562C96.9583 24.3438 96.7448 24.5573 96.4844 24.7969C96.224 25.026 95.9583 25.2292 95.6875 25.4062C95.4167 25.5729 95.1094 25.7135 94.7656 25.8281C94.4219 25.9427 94.0729 26 93.7188 26C92.8958 26 92.2344 25.6823 91.7344 25.0469C90.8385 25.6719 89.9635 25.9844 89.1094 25.9844C88.9531 25.9844 88.7865 25.974 88.6094 25.9531C88.4427 25.9219 88.224 25.8542 87.9531 25.75C87.6927 25.6354 87.4635 25.4896 87.2656 25.3125C87.0677 25.1354 86.9062 24.875 86.7812 24.5312C86.6458 24.1771 86.5938 23.7656 86.625 23.2969C86.6562 22.8073 86.776 22.349 86.9844 21.9219C87.1823 21.4948 87.474 21.0677 87.8594 20.6406C88.2552 20.2135 88.6719 19.8177 89.1094 19.4531C89.5469 19.0885 90.1094 18.6562 90.7969 18.1562C90.8802 18.1042 90.974 18.0417 91.0781 17.9688C91.2969 16.7188 91.651 15.5573 92.1406 14.4844C92.6302 13.4115 93.2031 12.5521 93.8594 11.9062C94.526 11.25 95.1927 10.9219 95.8594 10.9219C96.474 10.9219 96.9427 11.1042 97.2656 11.4688C97.599 11.8333 97.75 12.2552 97.7188 12.7344C97.6875 13.099 97.5729 13.4531 97.375 13.7969C97.1771 14.1406 96.9323 14.4531 96.6406 14.7344C96.3594 15.0052 96 15.2969 95.5625 15.6094C95.125 15.9219 94.7031 16.1979 94.2969 16.4375C93.8906 16.6771 93.4115 16.974 92.8594 17.3281C92.3177 17.6719 91.849 17.9896 91.4531 18.2812C91.4219 18.5521 91.401 18.7708 91.3906 18.9375C91.1719 21.5417 91.3333 23.3594 91.875 24.3906C92.9479 23.5469 94.0104 22.3281 95.0625 20.7344C95.3958 20.2344 95.7188 19.7865 96.0312 19.3906C96.3438 18.9844 96.6146 18.6562 96.8438 18.4062C97.0833 18.1562 97.3229 17.9427 97.5625 17.7656C97.8125 17.5885 98.0104 17.4583 98.1562 17.375C98.3021 17.2917 98.4688 17.2292 98.6562 17.1875C98.8438 17.1458 98.974 17.125 99.0469 17.125C99.1302 17.1146 99.2396 17.1094 99.375 17.1094ZM95.8125 11.2969C95.3333 11.2969 94.8021 11.5938 94.2188 12.1875C93.6458 12.7812 93.1146 13.5729 92.625 14.5625C92.1458 15.5417 91.7969 16.5573 91.5781 17.6094C94.8906 15.1927 96.5833 13.375 96.6562 12.1562C96.6771 11.8854 96.6094 11.6771 96.4531 11.5312C96.3073 11.375 96.0938 11.2969 95.8125 11.2969ZM89.0938 25.5625C89.8542 25.5625 90.6562 25.2656 91.5 24.6719C90.7812 23.4115 90.6094 21.4062 90.9844 18.6562C90.7344 18.8646 90.474 19.1354 90.2031 19.4688C89.9427 19.7917 89.6615 20.1875 89.3594 20.6562C89.0677 21.1146 88.8177 21.651 88.6094 22.2656C88.401 22.8802 88.2708 23.4948 88.2188 24.1094C88.2083 24.3594 88.2188 24.5885 88.25 24.7969C88.2917 24.9948 88.3802 25.1719 88.5156 25.3281C88.6615 25.4844 88.8542 25.5625 89.0938 25.5625ZM147.375 3.34375C147.531 3.29167 147.609 3.28646 147.609 3.32812C147.62 3.36979 147.625 3.44792 147.625 3.5625C147.625 3.61458 147.615 3.67188 147.594 3.73438C147.573 3.78646 147.552 3.83854 147.531 3.89062C146.688 4.38021 145.891 4.97396 145.141 5.67188C144.391 6.36979 143.656 7.16146 142.938 8.04688C142.219 8.92188 141.505 9.89062 140.797 10.9531C140.099 12.0156 139.38 13.151 138.641 14.3594C137.974 15.4323 137.323 16.5156 136.688 17.6094C136.052 18.6927 135.443 19.7448 134.859 20.7656C134.276 21.776 133.724 22.7292 133.203 23.625C132.682 24.5208 132.203 25.3125 131.766 26L127.344 26.0312C127.729 25.7708 128.052 25.5208 128.312 25.2812C128.583 25.0417 128.812 24.8177 129 24.6094C129.188 24.3906 129.349 24.1927 129.484 24.0156C129.62 23.8385 129.76 23.6771 129.906 23.5312C130.573 22.5312 131.036 21.4323 131.297 20.2344C131.557 19.026 131.63 17.8125 131.516 16.5938C131.047 17.125 130.594 17.6458 130.156 18.1562C129.719 18.6562 129.302 19.1562 128.906 19.6562C127.854 20.9792 126.823 22.1406 125.812 23.1406C124.802 24.1302 123.802 24.9688 122.812 25.6562C121.833 26.3438 120.859 26.8854 119.891 27.2812C118.922 27.6875 117.948 27.9531 116.969 28.0781C115.979 28.2031 114.984 28.2396 113.984 28.1875C112.984 28.1354 112.021 27.9844 111.094 27.7344C110.167 27.4844 109.292 27.1354 108.469 26.6875C107.656 26.25 106.938 25.7083 106.312 25.0625C105.688 24.4062 105.177 23.651 104.781 22.7969C104.385 21.9323 104.141 20.9635 104.047 19.8906C103.984 19.0677 104.052 18.2812 104.25 17.5312C104.448 16.7812 104.745 16.0885 105.141 15.4531C105.547 14.8073 106.026 14.2292 106.578 13.7188C107.141 13.2083 107.755 12.7708 108.422 12.4062C109.099 12.0417 109.807 11.7604 110.547 11.5625C111.286 11.3646 112.031 11.2604 112.781 11.25C113.5 11.1667 114.229 11.1667 114.969 11.25C115.708 11.3333 116.417 11.4948 117.094 11.7344C117.292 11.1094 117.562 10.5365 117.906 10.0156C118.26 9.49479 118.682 9.04167 119.172 8.65625C119.661 8.27083 120.219 7.96875 120.844 7.75C121.479 7.52083 122.172 7.39583 122.922 7.375C124.13 7.34375 125.234 7.53646 126.234 7.95312C127.245 8.36979 128.13 8.94792 128.891 9.6875C129.661 10.4167 130.302 11.2708 130.812 12.25C131.323 13.2188 131.693 14.2448 131.922 15.3281C132.589 14.6198 133.307 13.8698 134.078 13.0781C134.859 12.2865 135.672 11.4948 136.516 10.7031C137.37 9.90104 138.25 9.11979 139.156 8.35938C140.062 7.58854 140.974 6.875 141.891 6.21875C142.818 5.5625 143.74 4.98958 144.656 4.5C145.583 4 146.49 3.61458 147.375 3.34375ZM121.391 17.0781C121.359 17.6406 121.25 18.1719 121.062 18.6719C121.438 18.7344 121.823 18.7656 122.219 18.7656C122.844 18.7656 123.417 18.651 123.938 18.4219C124.469 18.1927 124.953 17.8802 125.391 17.4844L126.156 16.5938H126.453C126.505 16.6458 126.526 16.7083 126.516 16.7812C126.516 16.8542 126.516 16.9323 126.516 17.0156C126.453 17.0885 126.385 17.1667 126.312 17.25C126.25 17.3229 126.177 17.4062 126.094 17.5C126.021 17.5833 125.938 17.6667 125.844 17.75C125.698 17.8854 125.536 18.0208 125.359 18.1562C125.193 18.2812 125.036 18.3958 124.891 18.5C124.714 18.625 124.536 18.7448 124.359 18.8594C123.714 19.1094 123.094 19.2604 122.5 19.3125C121.917 19.3646 121.359 19.3333 120.828 19.2188C120.557 19.7708 120.203 20.2708 119.766 20.7188C119.328 21.1562 118.839 21.5365 118.297 21.8594C117.755 22.1823 117.172 22.4323 116.547 22.6094C115.932 22.776 115.302 22.8594 114.656 22.8594C114.115 22.849 113.568 22.8021 113.016 22.7188C112.464 22.6354 111.943 22.5052 111.453 22.3281C110.964 22.151 110.521 21.9167 110.125 21.625C109.729 21.3229 109.422 20.9479 109.203 20.5C108.995 20.0625 108.88 19.599 108.859 19.1094C108.849 18.6094 108.922 18.1302 109.078 17.6719C109.234 17.2135 109.469 16.7917 109.781 16.4062C110.104 16.0208 110.495 15.7083 110.953 15.4688C111.089 15.4896 111.167 15.5521 111.188 15.6562C111.208 15.75 111.219 15.8594 111.219 15.9844C110.781 16.2031 110.422 16.4792 110.141 16.8125C109.87 17.1458 109.672 17.5052 109.547 17.8906C109.422 18.276 109.37 18.6771 109.391 19.0938C109.411 19.5 109.505 19.8802 109.672 20.2344C109.901 20.6823 110.219 21.0417 110.625 21.3125C111.031 21.5729 111.484 21.776 111.984 21.9219C112.484 22.0573 113.01 22.151 113.562 22.2031C114.115 22.2448 114.646 22.2708 115.156 22.2812C115.698 22.2396 116.224 22.1302 116.734 21.9531C117.245 21.776 117.719 21.5521 118.156 21.2812C118.604 21 119.005 20.6719 119.359 20.2969C119.714 19.9219 120.01 19.5156 120.25 19.0781C119.792 18.9323 119.37 18.7396 118.984 18.5C118.599 18.25 118.26 17.9688 117.969 17.6562C117.677 17.3333 117.438 16.9844 117.25 16.6094C117.062 16.2344 116.938 15.849 116.875 15.4531C116.688 14.276 116.719 13.1771 116.969 12.1562C116.479 11.9792 115.964 11.849 115.422 11.7656C114.88 11.6719 114.323 11.625 113.75 11.625C112.802 11.625 111.833 11.75 110.844 12C109.854 12.25 108.922 12.651 108.047 13.2031C107.547 13.526 107.083 13.9062 106.656 14.3438C106.229 14.7708 105.865 15.2604 105.562 15.8125C105.26 16.3542 105.021 16.9531 104.844 17.6094C104.677 18.2656 104.594 18.9844 104.594 19.7656C104.594 20.4635 104.714 21.1042 104.953 21.6875C105.203 22.2604 105.526 22.7812 105.922 23.25C106.328 23.7188 106.786 24.1302 107.297 24.4844C107.818 24.8385 108.354 25.1406 108.906 25.3906C110.125 25.849 111.354 26.125 112.594 26.2188C113.833 26.3229 115.057 26.276 116.266 26.0781C117.474 25.8906 118.656 25.5729 119.812 25.125C120.979 24.6667 122.094 24.1146 123.156 23.4688C124.229 22.8125 125.24 22.0729 126.188 21.25C127.146 20.4271 128.021 19.5573 128.812 18.6406C129.125 18.3177 129.5 17.9219 129.938 17.4531C130.385 16.974 130.88 16.4427 131.422 15.8594C131.307 15.1719 131.141 14.5104 130.922 13.875C130.703 13.2292 130.427 12.6198 130.094 12.0469C129.625 11.2552 129.057 10.5521 128.391 9.9375C127.734 9.3125 127 8.82812 126.188 8.48438C125.385 8.13021 124.521 7.93229 123.594 7.89062C122.677 7.84896 121.729 8.01042 120.75 8.375C119.958 8.66667 119.297 9.13021 118.766 9.76562C118.234 10.401 117.839 11.1198 117.578 11.9219C118.12 12.151 118.62 12.4323 119.078 12.7656C119.547 13.099 119.953 13.4844 120.297 13.9219C120.641 14.349 120.906 14.8281 121.094 15.3594C121.292 15.8906 121.391 16.4635 121.391 17.0781ZM131.891 20.5C132.589 19.5208 133.349 18.4948 134.172 17.4219C134.995 16.349 135.828 15.2812 136.672 14.2188C137.526 13.1458 138.37 12.1094 139.203 11.1094C140.036 10.1094 140.812 9.19792 141.531 8.375C142.25 7.54167 142.885 6.82292 143.438 6.21875C144 5.61458 144.438 5.17708 144.75 4.90625C143.698 5.55208 142.62 6.30208 141.516 7.15625C140.422 8 139.333 8.90625 138.25 9.875C137.167 10.8333 136.099 11.8385 135.047 12.8906C134.005 13.9323 133.005 14.974 132.047 16.0156C132.161 16.7656 132.208 17.5208 132.188 18.2812C132.167 19.0312 132.068 19.7708 131.891 20.5ZM120.781 16.4062C120.688 15.4688 120.339 14.6562 119.734 13.9688C119.141 13.2812 118.38 12.7396 117.453 12.3438C117.318 12.875 117.245 13.4115 117.234 13.9531C117.224 14.4844 117.276 15 117.391 15.5C117.568 16.3021 117.938 16.9583 118.5 17.4688C119.062 17.9792 119.724 18.3385 120.484 18.5469C120.755 17.8594 120.854 17.1458 120.781 16.4062ZM143.906 21.2031C143.167 22.3281 142.281 23.3385 141.25 24.2344C140.219 25.1302 139.193 25.8385 138.172 26.3594C138.37 26.9115 138.396 27.526 138.25 28.2031C138.104 28.8802 137.865 29.5573 137.531 30.2344C137.198 30.9219 136.776 31.5885 136.266 32.2344C135.755 32.8802 135.234 33.4531 134.703 33.9531C134.161 34.4531 133.62 34.849 133.078 35.1406C132.526 35.4427 132.052 35.5938 131.656 35.5938C131.156 35.5938 130.906 35.276 130.906 34.6406C130.906 34.0365 131.12 33.3125 131.547 32.4688C131.964 31.6354 132.484 30.8281 133.109 30.0469C133.734 29.276 134.411 28.5573 135.141 27.8906C135.87 27.224 136.536 26.7292 137.141 26.4062C137.109 25.6771 136.839 25.1875 136.328 24.9375L136.297 24.5938C136.911 24.3021 137.568 23.8542 138.266 23.25C138.974 22.6458 139.604 22.0104 140.156 21.3438C140.708 20.6771 141.172 20.0104 141.547 19.3438C141.922 18.6771 142.109 18.1302 142.109 17.7031C142.12 17.4844 142.083 17.2969 142 17.1406C141.917 16.974 141.792 16.8906 141.625 16.8906C141.385 16.8906 141.115 17 140.812 17.2188C140.521 17.4375 140.182 17.776 139.797 18.2344C139.411 18.6823 139.068 19.1042 138.766 19.5C138.464 19.8958 138.073 20.4271 137.594 21.0938C137.469 21.2708 137.375 21.401 137.312 21.4844L136.828 21.5156C137.849 20.0365 138.599 19.0104 139.078 18.4375C140.151 17.1562 141.047 16.5156 141.766 16.5156C142.589 16.5156 143.109 16.7969 143.328 17.3594C143.547 17.9219 143.417 18.7031 142.938 19.7031C142.656 20.2969 142.12 20.9635 141.328 21.7031C140.547 22.4427 139.74 23.0938 138.906 23.6562C138.073 24.2083 137.375 24.5938 136.812 24.8125C137.365 25.1146 137.766 25.5104 138.016 26C138.943 25.5521 139.891 24.9115 140.859 24.0781C141.839 23.2448 142.693 22.2865 143.422 21.2031H143.906ZM131.547 35.2188C132.016 35.2188 132.573 34.9167 133.219 34.3125C133.854 33.7188 134.458 32.9948 135.031 32.1406C135.594 31.2969 136.083 30.375 136.5 29.375C136.906 28.3854 137.125 27.5208 137.156 26.7812C136.26 27.3438 135.359 28.1146 134.453 29.0938C133.547 30.0833 132.797 31.099 132.203 32.1406C131.609 33.1927 131.312 34.0729 131.312 34.7812C131.312 35.0729 131.391 35.2188 131.547 35.2188ZM151.844 21.2031H152.297C152.214 21.3385 152.099 21.5156 151.953 21.7344C151.818 21.9427 151.552 22.3229 151.156 22.875C150.76 23.4271 150.375 23.9167 150 24.3438C149.635 24.7604 149.234 25.1406 148.797 25.4844C148.359 25.8281 147.984 26 147.672 26C147.349 26 147.047 25.8073 146.766 25.4219C146.495 25.0365 146.359 24.4844 146.359 23.7656V23.6875C145.203 25.2292 144.323 26 143.719 26C143.25 26 142.901 25.7865 142.672 25.3594C142.432 24.9323 142.312 24.401 142.312 23.7656C142.312 23.1719 142.474 22.526 142.797 21.8281C143.12 21.1198 143.536 20.4635 144.047 19.8594C144.557 19.2448 145.104 18.6823 145.688 18.1719C146.271 17.6615 146.844 17.2604 147.406 16.9688C147.979 16.6667 148.458 16.5156 148.844 16.5156C149.365 16.5156 149.531 16.9479 149.344 17.8125L150.156 16.5938H152.141C152.016 16.7812 151.849 17.026 151.641 17.3281C151.432 17.6302 151.062 18.1979 150.531 19.0312C150 19.8542 149.531 20.6146 149.125 21.3125C148.719 22.0104 148.349 22.7292 148.016 23.4688C147.682 24.1979 147.516 24.7396 147.516 25.0938C147.516 25.3646 147.625 25.5 147.844 25.5C148.031 25.5 148.286 25.3646 148.609 25.0938C148.943 24.8229 149.26 24.5156 149.562 24.1719C149.865 23.8281 150.193 23.4219 150.547 22.9531C150.911 22.4844 151.177 22.1302 151.344 21.8906C151.521 21.651 151.688 21.4219 151.844 21.2031ZM143.719 25.5938C144.229 25.5938 145.214 24.5781 146.672 22.5469C146.974 21.7969 147.536 20.7396 148.359 19.375C148.432 19.2188 148.516 19.0156 148.609 18.7656C148.714 18.5052 148.812 18.2292 148.906 17.9375C149 17.6354 149.042 17.3802 149.031 17.1719C149.031 16.9531 148.969 16.8438 148.844 16.8438C148.354 16.8438 147.792 17.1823 147.156 17.8594C146.521 18.5365 145.943 19.3333 145.422 20.25C144.901 21.1562 144.458 22.0885 144.094 23.0469C143.729 23.9948 143.547 24.7344 143.547 25.2656C143.547 25.4844 143.604 25.5938 143.719 25.5938ZM161.641 21.2031C161.339 21.6198 161.047 22.0208 160.766 22.4062C160.484 22.7812 160.208 23.1354 159.938 23.4688C159.677 23.7917 159.406 24.1042 159.125 24.4062C158.844 24.7083 158.573 24.9792 158.312 25.2188C158.052 25.4479 157.807 25.6354 157.578 25.7812C157.359 25.9271 157.182 26 157.047 26C156.88 26 156.719 25.9531 156.562 25.8594C156.406 25.7552 156.266 25.6094 156.141 25.4219C156.016 25.2344 155.917 25.0052 155.844 24.7344C155.771 24.4531 155.734 24.1302 155.734 23.7656C155.734 23.526 155.792 23.2344 155.906 22.8906C156.031 22.5365 156.193 22.1562 156.391 21.75C156.589 21.3333 156.812 20.9062 157.062 20.4688C157.312 20.0312 157.562 19.6094 157.812 19.2031C158.073 18.7969 158.318 18.4167 158.547 18.0625C158.776 17.7083 158.974 17.4115 159.141 17.1719L159.172 17.125C158.797 17.2292 158.448 17.401 158.125 17.6406C157.812 17.8698 157.516 18.151 157.234 18.4844C156.953 18.8177 156.688 19.1875 156.438 19.5938C156.188 20 155.948 20.4219 155.719 20.8594C155.385 21.5156 155.057 22.151 154.734 22.7656C154.422 23.3698 154.099 23.9167 153.766 24.4062C153.484 24.8542 153.161 25.2396 152.797 25.5625C152.432 25.8854 152.01 26.0573 151.531 26.0781C151.115 26.026 150.818 25.8906 150.641 25.6719C150.464 25.4531 150.359 25.2083 150.328 24.9375C150.276 24.7396 150.276 24.526 150.328 24.2969C150.37 24.0677 150.443 23.849 150.547 23.6406C150.651 23.4323 150.781 23.2448 150.938 23.0781C151.094 22.9115 151.255 22.7969 151.422 22.7344C151.724 22.651 151.995 22.6562 152.234 22.75C152.474 22.8438 152.62 23.0156 152.672 23.2656C152.714 23.5156 152.682 23.7708 152.578 24.0312C152.474 24.2812 152.349 24.5156 152.203 24.7344C152.068 24.9531 151.938 25.151 151.812 25.3281C151.688 25.4948 151.63 25.6198 151.641 25.7031C151.62 25.7552 151.625 25.7656 151.656 25.7344C151.698 25.6927 151.771 25.6823 151.875 25.7031C152.115 25.6198 152.349 25.4844 152.578 25.2969C152.818 25.099 153.052 24.8229 153.281 24.4688C153.615 23.9479 153.932 23.3906 154.234 22.7969C154.536 22.1927 154.854 21.5938 155.188 21C155.49 20.4479 155.792 19.9219 156.094 19.4219C156.406 18.9115 156.734 18.4635 157.078 18.0781C157.422 17.6823 157.792 17.3594 158.188 17.1094C158.583 16.849 159.026 16.6875 159.516 16.625L159.531 16.5938H161.516C161.484 16.6354 161.38 16.7865 161.203 17.0469C161.026 17.2969 160.797 17.6302 160.516 18.0469C160.245 18.4635 159.932 18.9531 159.578 19.5156C159.234 20.0677 158.875 20.6667 158.5 21.3125C158.302 21.6458 158.104 22 157.906 22.375C157.719 22.75 157.547 23.1146 157.391 23.4688C157.245 23.8125 157.125 24.1302 157.031 24.4219C156.938 24.7031 156.891 24.9271 156.891 25.0938C156.891 25.3646 157 25.5 157.219 25.5C157.344 25.5 157.536 25.3854 157.797 25.1562C158.068 24.9271 158.38 24.6198 158.734 24.2344C159.089 23.8385 159.474 23.3802 159.891 22.8594C160.307 22.3385 160.734 21.7865 161.172 21.2031H161.641ZM170.125 21.2031H170.594C170.51 21.3385 170.396 21.5156 170.25 21.7344C170.115 21.9427 169.844 22.3229 169.438 22.875C169.042 23.4271 168.661 23.9167 168.297 24.3438C167.943 24.7604 167.542 25.1406 167.094 25.4844C166.656 25.8281 166.286 26 165.984 26C165.641 26 165.333 25.8073 165.062 25.4219C164.792 25.0365 164.656 24.4844 164.656 23.7656C164.656 23.5365 164.719 23.2396 164.844 22.875C163.229 24.9583 162.125 26 161.531 26C161.198 26 160.896 25.8073 160.625 25.4219C160.354 25.0365 160.219 24.4844 160.219 23.7656C160.219 23.4427 160.349 22.974 160.609 22.3594C160.87 21.7448 161.182 21.1198 161.547 20.4844C161.922 19.8385 162.297 19.2188 162.672 18.625C163.047 18.0312 163.365 17.5469 163.625 17.1719L164.016 16.5938H166C165.875 16.7812 165.708 17.026 165.5 17.3281C165.292 17.6302 164.922 18.1979 164.391 19.0312C163.859 19.8542 163.391 20.6146 162.984 21.3125C162.578 22.0104 162.208 22.7292 161.875 23.4688C161.542 24.1979 161.375 24.7396 161.375 25.0938C161.375 25.3646 161.484 25.5 161.703 25.5C162.172 25.5 163.453 24.1094 165.547 21.3281C165.88 20.6823 166.286 19.9688 166.766 19.1875C167.255 18.3958 167.656 17.7656 167.969 17.2969L168.453 16.5938H170.438C170.312 16.7812 170.141 17.026 169.922 17.3281C169.714 17.6302 169.344 18.1979 168.812 19.0312C168.281 19.8542 167.812 20.6146 167.406 21.3125C167.01 22.0104 166.646 22.7292 166.312 23.4688C165.979 24.1979 165.812 24.7396 165.812 25.0938C165.812 25.3646 165.922 25.5 166.141 25.5C166.328 25.5 166.583 25.3646 166.906 25.0938C167.229 24.8229 167.542 24.5156 167.844 24.1719C168.146 23.8281 168.479 23.4219 168.844 22.9531C169.208 22.4844 169.474 22.1302 169.641 21.8906C169.818 21.651 169.979 21.4219 170.125 21.2031ZM180.578 21.2031C180.276 21.6198 179.984 22.0208 179.703 22.4062C179.422 22.7812 179.146 23.1354 178.875 23.4688C178.615 23.7917 178.344 24.1042 178.062 24.4062C177.781 24.7083 177.51 24.9792 177.25 25.2188C176.99 25.4479 176.745 25.6354 176.516 25.7812C176.297 25.9271 176.12 26 175.984 26C175.818 26 175.641 25.974 175.453 25.9219C175.266 25.8594 175.099 25.7448 174.953 25.5781C174.818 25.4115 174.719 25.1823 174.656 24.8906C174.594 24.599 174.599 24.224 174.672 23.7656C174.661 23.4948 174.734 23.1562 174.891 22.75C175.057 22.3333 175.26 21.8854 175.5 21.4062C175.333 21.4688 175.167 21.5156 175 21.5469C174.833 21.5677 174.667 21.5781 174.5 21.5781C174.26 21.9427 173.984 22.3646 173.672 22.8438C173.359 23.3229 173.016 23.7865 172.641 24.2344C172.276 24.6823 171.885 25.0781 171.469 25.4219C171.052 25.7656 170.62 25.9844 170.172 26.0781C169.734 26.0573 169.422 25.9375 169.234 25.7188C169.036 25.4896 168.911 25.224 168.859 24.9219C168.807 24.7135 168.802 24.4844 168.844 24.2344C168.885 23.9844 168.958 23.7448 169.062 23.5156C169.167 23.276 169.297 23.0625 169.453 22.875C169.609 22.6875 169.776 22.5521 169.953 22.4688C170.234 22.3542 170.505 22.3438 170.766 22.4375C171.026 22.5208 171.188 22.6979 171.25 22.9688C171.312 23.2292 171.292 23.5 171.188 23.7812C171.083 24.0521 170.958 24.3073 170.812 24.5469C170.677 24.7865 170.547 25.0052 170.422 25.2031C170.297 25.3906 170.24 25.526 170.25 25.6094C170.25 25.6615 170.26 25.6719 170.281 25.6406C170.302 25.599 170.37 25.5833 170.484 25.5938C170.776 25.4792 171.089 25.2708 171.422 24.9688C171.755 24.6562 172.078 24.3073 172.391 23.9219C172.714 23.526 173.021 23.1198 173.312 22.7031C173.604 22.276 173.854 21.8906 174.062 21.5469C173.729 21.4948 173.422 21.3854 173.141 21.2188C172.859 21.0417 172.63 20.8229 172.453 20.5625C172.286 20.2917 172.182 19.9844 172.141 19.6406C172.109 19.2865 172.172 18.901 172.328 18.4844C172.599 17.7135 173.042 17.1406 173.656 16.7656C174.271 16.3906 175.099 16.2344 176.141 16.2969C176.474 16.349 176.792 16.4844 177.094 16.7031C177.406 16.9115 177.635 17.2135 177.781 17.6094C177.833 17.526 177.88 17.4479 177.922 17.375C177.974 17.3021 178.026 17.2344 178.078 17.1719L178.469 16.5938H180.453C180.422 16.6354 180.318 16.7865 180.141 17.0469C179.964 17.2969 179.734 17.6302 179.453 18.0469C179.182 18.4635 178.87 18.9531 178.516 19.5156C178.172 20.0677 177.812 20.6667 177.438 21.3125C177.24 21.6458 177.042 22 176.844 22.375C176.656 22.75 176.484 23.1146 176.328 23.4688C176.182 23.8125 176.062 24.1302 175.969 24.4219C175.875 24.7031 175.828 24.9271 175.828 25.0938C175.828 25.3646 175.938 25.5 176.156 25.5C176.281 25.5 176.474 25.3854 176.734 25.1562C177.005 24.9271 177.318 24.6198 177.672 24.2344C178.026 23.8385 178.411 23.3802 178.828 22.8594C179.245 22.3385 179.672 21.7865 180.109 21.2031H180.578ZM174.766 21.1875C175.016 21.2188 175.375 21.0781 175.844 20.7656C176.104 20.2969 176.375 19.8385 176.656 19.3906C176.938 18.9323 177.198 18.5104 177.438 18.125C177.333 17.7292 177.172 17.4271 176.953 17.2188C176.734 17 176.495 16.8906 176.234 16.8906C175.703 16.9115 175.271 17.1042 174.938 17.4688C174.604 17.8333 174.323 18.2656 174.094 18.7656C173.865 19.3281 173.776 19.8281 173.828 20.2656C173.88 20.6927 174.104 20.9792 174.5 21.125L174.766 21.1875Z" fill="black" fill-opacity="0.73"/>
</svg>
